<svg width="58" height="48" viewBox="0 0 58 48" fill="none" xmlns="http://www.w3.org/2000/svg">
<path d="M39.1818 34.2222V1H1V34.2222H39.1818ZM39.1818 34.2222H57V21.4444L49.3636 13.7778H39.1818V34.2222ZM18.8182 40.6111C18.8182 44.1396 15.9691 47 12.4545 47C8.94001 47 6.09091 44.1396 6.09091 40.6111C6.09091 37.0826 8.94001 34.2222 12.4545 34.2222C15.9691 34.2222 18.8182 37.0826 18.8182 40.6111ZM51.9091 40.6111C51.9091 44.1396 49.06 47 45.5455 47C42.0309 47 39.1818 44.1396 39.1818 40.6111C39.1818 37.0826 42.0309 34.2222 45.5455 34.2222C49.06 34.2222 51.9091 37.0826 51.9091 40.6111Z" stroke="#3460D9" stroke-linecap="round" stroke-linejoin="round"/>
</svg>
