<svg width="43" height="39" viewBox="0 0 43 39" fill="none" xmlns="http://www.w3.org/2000/svg">
<path d="M3.90909 39C2.83409 39 1.91415 38.6185 1.14927 37.8554C0.383091 37.091 0 36.1725 0 35.1V11.7C0 10.6275 0.383091 9.7097 1.14927 8.9466C1.91415 8.1822 2.83409 7.8 3.90909 7.8H10.0659L13.6818 3.9H25.4091V11.7H31.2727V17.55H39.0909V35.1C39.0909 36.1725 38.7085 37.091 37.9436 37.8554C37.1774 38.6185 36.2568 39 35.1818 39H3.90909ZM19.5455 32.175C21.9886 32.175 24.0657 31.3222 25.7765 29.6166C27.4861 27.9097 28.3409 25.8375 28.3409 23.4C28.3409 20.9625 27.4861 18.8903 25.7765 17.1834C24.0657 15.4778 21.9886 14.625 19.5455 14.625C17.1023 14.625 15.0252 15.4778 13.3144 17.1834C11.6048 18.8903 10.75 20.9625 10.75 23.4C10.75 25.8375 11.6048 27.9097 13.3144 29.6166C15.0252 31.3222 17.1023 32.175 19.5455 32.175ZM19.5455 28.275C18.1773 28.275 17.0208 27.8037 16.0761 26.8612C15.1314 25.9188 14.6591 24.765 14.6591 23.4C14.6591 22.035 15.1314 20.8813 16.0761 19.9388C17.0208 18.9963 18.1773 18.525 19.5455 18.525C20.9136 18.525 22.0701 18.9963 23.0148 19.9388C23.9595 20.8813 24.4318 22.035 24.4318 23.4C24.4318 24.765 23.9595 25.9188 23.0148 26.8612C22.0701 27.8037 20.9136 28.275 19.5455 28.275ZM35.1818 11.7V7.8H31.2727V3.9H35.1818V0H39.0909V3.9H43V7.8H39.0909V11.7H35.1818Z" fill="#3460D9"/>
</svg>
