<svg id="eMdvjktixC71" xmlns="http://www.w3.org/2000/svg" xmlns:xlink="http://www.w3.org/1999/xlink" viewBox="0 0 268 91" shape-rendering="geometricPrecision" text-rendering="geometricPrecision"><path d="M85.0374,20.8037c-9.3494,5.4391-13.2191,7.6861-16.3105,9.4899-.0891-.0879-.1787-.1754-.269-.2624-3.141,1.8632-5.5046,3.2975-12.1286,7.3071-.0666-.0708-.1342-.1407-.2017-.2096-.9933.6266-1.9867,1.2531-2.9803,1.8794-.0142.3755-.0635.7504-.1484,1.1168c1.3185-.6942,2.6355-1.3912,3.9534-2.0864-.0632-.0755-.1269-.1501-.191-.2238c6.8771-3.7918,9.2341-5.0882,12.5333-6.948-.0871-.0901-.1749-.1799-.263-.269c3.0936-1.7718,6.9943-4.0166,16.3017-9.3622-.097-.1432-.1955-.287-.2959-.4318ZM29.8207,68.6676c-2.2273,3.9477-3.7573,6.6114-10.0062,17.5557-.245-.1135-.4875-.2282-.7277-.3446c6.3179-10.8482,7.8846-13.5548,10.1589-17.4153-.2245-.0819-.4477-.1656-.669-.2513c2.4795-4.0106,5.0101-7.9928,7.5206-11.9841h1.0782c-2.2237,4.2224-4.4304,8.4572-6.6823,12.6644-.0644-.0209-.6725-.2248-.6725-.2248ZM17.2116,60.9692c3.141-1.8632,5.5046-3.2975,12.1285-7.3071.067.0708.1342.141.2018.2096.8594-.5419,1.8859-1.1896,2.7454-1.7314v-1.0625l-3.5701,1.8841c.0631.0755.1269.1501.191.2238-6.8772,3.7915-9.2342,5.0882-12.5333,6.948.0871.0898.1752.1795.263.269-3.094,1.7718-6.99431,4.0163-16.301718,9.3622.096932.1432.195443.287.295849.4318C9.98143,64.7576,13.8511,62.5106,16.9426,60.7068c.0893.0879.1787.1751.269.2624Zm12.7887-6.649c-6.2295,4.2759-8.6001,5.8988-11.431,7.8891.1414.1227.2844.2441.4284.3645-2.984,2.1496-6.4411,4.6545-15.57326,11.257.11714.1382.23618.2763.35647.4148C12.9393,67.5432,16.3591,65.0455,19.3397,62.8558c.1449.1179.2908.2349.4379.3506c2.6519-1.9989,4.9922-3.8055,10.8571-8.3219.0445.0373.0893.0749.1342.1119l1.5184-1.1968v-1.2193l-2.4151,1.6182c.0423.0408.0852.0816.1281.1217Zm1.1973,1.0164c-5.5437,4.6798-7.8578,6.6271-10.2855,8.7245.1812.1309.3643.2599.5487.3876-2.8619,2.5501-5.8352,5.2204-14.57047,13.0437.14745.1397.29648.2795.4474.4189C16.0796,69.9789,19.0097,67.3273,21.8646,64.7234c.1848.1239.371.246.5586.3664c2.2462-2.1171,4.4781-4.2711,9.577-9.1776l.0765.0512.2106-.2051v-1.4482l-1.1632.9699.0735.0566Zm1.238.8914c-4.8396,4.9849-7.0287,7.2319-9.1078,9.4226.2248.1343.4512.2665.6801.3964-2.7141,2.9763-5.1939,5.7233-13.3135,14.6866.1784.1365.359.2725.5412.4078c8.1022-9.0745,10.5369-11.7922,13.2361-14.8361.228.1245.4578.2469.6899.3673c2.9364-3.4561,5.8248-6.959,8.7268-10.4446h-1.4528ZM25.9273,67.057c.2257.1097.4537.2175.6836.3231-2.5234,3.4188-4.5281,6.1706-11.8312,16.1515.2097.1283.4216.2557.6356.3821c7.2592-10.0867,9.2212-12.8006,11.7165-16.2991.2283.1002.4582.1986.6899.2947c2.6365-3.8744,5.2249-7.7854,7.8298-11.6813h-1.2377c-2.8332,3.6047-5.6875,7.1981-8.4865,10.829Zm5.3177,2.0693c.2229.0667.4471.1315.6728.1944-1.9538,4.2819-3.1283,6.9132-8.3289,18.4747.2488.0926.4998.184.7527.2737c5.1163-11.6382,6.2643-14.2294,8.1544-18.5935.2263.0579.4518.1126.6763.1635c1.812-4.4614,3.5811-8.9399,5.3676-13.4111h-.9681c-2.112,4.2973-4.2429,8.5877-6.3268,12.8983Zm2.6784.6718c.2191.043.4373.0828.6549.1195-1.5734,4.6757-2.3984,7.2069-6.4042,19.3594.0458.0127.0916.0253.1373.0377.2327.0638.4651.1254.6978.1849c3.908-12.2345,4.7109-14.7182,6.2005-19.4843.2201.0312.4389.0591.6565.084c1.3289-4.6175,2.62-9.2474,3.9275-13.8713h-.8923c-1.6592,4.5234-3.3405,9.0385-4.978,13.5701Zm2.6917.3702c.2097.0164.4199.0303.6309.0426-.0004.0019-.001.0035-.0013.0054-1.1376,5.0611-1.6463,7.4462-4.3932,20.0764.3066.0481.6128.093.9188.1341c2.6298-12.6976,3.1223-15.0265,4.1526-20.1824.2081.0083.4165.0149.6258.0196.8257-4.6754,1.6185-9.3574,2.4265-14.036h-.8431c-1.1742,4.646-2.3636,9.2892-3.517,13.9403Zm2.6671.1049c.1989.0006.3975-.0009.5964-.006-.6362,5.3864-.8711,7.6109-2.2926,20.4912.3312.0129.6618.0221.9918.0272c1.286-12.9094,1.513-15.0821,2.0147-20.5487.198-.0117.3953-.0266.592-.0443.3243-4.6536.6198-9.31.9299-13.9646h-.8153c-.6728,4.6814-1.3608,9.3616-2.0169,14.0452Zm2.6194-.1577c.1878-.0234.3747-.0494.561-.0778-.0799,5.6674-.0805,7.707-.1534,20.6328.3511-.0272.7016-.0588,1.0504-.0945-.0729-12.9369-.0729-14.9145-.1547-20.6654.1844-.0348.3682-.0721.5513-.1119-.1613-4.5237-.346-9.0473-.5184-13.5707h-.8064c-.1775,4.629-.3666,9.2582-.5298,13.8875Zm2.5445-.4786c.1734-.0437.3457-.0895.5175-.1372.5305,5.9253.7221,7.7455,1.9882,20.5423.366-.0711.7303-.147,1.0931-.2279-1.4189-12.7823-1.6024-14.5355-2.326-20.5395.1686-.0538.3365-.1091.5039-.1666-.6091-4.2945-1.2346-8.5871-1.8528-12.88h-.8152c.2968,4.4693.5838,8.9402.8913,13.4089Zm2.43-.7654c.1569-.0594.3132-.1204.4688-.1836c1.1983,6.1384,1.5364,7.7256,4.1053,20.212.3748-.1179.7473-.2412,1.1174-.3692-2.723-12.4412-3.0444-13.9618-4.4684-20.164.1516-.068.3025-.1375.4528-.2083-.9987-3.9784-2.0103-7.9536-3.015-11.9304h-.843c.7281,4.2142,1.447,8.4306,2.1821,12.6435Zm2.2865-1.0131c.1402-.0715.2795-.1442.4178-.2185c1.9171,6.2813,2.3608,7.6413,6.167,19.6399.3776-.1666.7521-.3389,1.1237-.5162-3.9559-11.9199-4.3749-13.2179-6.5494-19.5378.1345-.0784.2681-.1577.4004-.2387-1.3138-3.5879-2.6387-7.1718-3.9543-10.7591h-.8923c1.0959,3.8766,2.1855,7.7551,3.2871,11.6304Zm2.1228-1.2253c.1234-.08.2456-.1609.3672-.2428c2.6768,6.335,3.1909,7.4854,8.1423,18.8316.3738-.2166.7442-.4385,1.1101-.6661-5.0891-11.2339-5.5744-12.3306-8.5357-18.6681l-.011.0079c.1209-.0882.2412-.1777.3599-.2674-1.101-2.2451-2.5329-5.1512-4.6212-9.4008-.322.0035-.6454.0006-.9677.0006c1.3858,3.4682,2.7668,6.9382,4.1561,10.4051Zm-2.8-10.4209c2.1293,4.0432,3.601,6.8449,4.7465,9.0157.1067-.0853.2125-.1716.3173-.2585c3.459,6.2819,4.0197,7.2495,10.0011,17.7984.3641-.2668.7234-.5393,1.0773-.8175-6.101-10.4047-6.6312-11.3284-10.3964-17.5689.1008-.0901.2005-.1808.2994-.2725-1.2444-1.9808-2.8322-4.5003-5.0554-8.0351-.3223.0692-.6526.116-.9898.1384Zm1.3678-.2308c2.2452,3.3582,3.8612,5.7793,5.139,7.6881.1007-.0987.2001-.1979.299-.2978c4.2593,6.1096,4.8507,6.9217,11.7329,16.5444.3148-.2889.6252-.5826.9302-.8807-6.9691-9.4652-7.5339-10.2464-12.0841-16.2726.0945-.1027.1876-.2064.2795-.3101-1.3546-1.725-3.0536-3.8832-5.3512-6.8063-.3044.1337-.6201.2459-.9453.335Zm1.2974-.5013c2.3083,2.7739,4.0266,4.8423,5.4064,6.4991.0887-.1059.1765-.2128.2627-.3199c5.0383,5.8213,5.6546,6.5057,13.2829,15.1061.28-.32.5544-.6443.8231-.9724-7.6848-8.4278-8.2797-9.0901-13.6008-14.7846.0817-.1097.1626-.2197.2418-.3307-1.4398-1.4829-3.2183-3.3116-5.5551-5.717-.2731.1928-.5608.3667-.861.5194Zm1.1729-.7533c2.3416,2.2801,4.1343,4.028,5.5934,5.4483.0761-.1126.1506-.2254.2241-.3389c5.7851,5.4192,6.4276,5.999,14.6372,13.5027.2409-.3474.4758-.6986.7047-1.0533-8.233-7.3204-8.8603-7.8846-14.9156-13.1366.0685-.1154.1358-.2314.2018-.3478-1.5077-1.2578-3.3456-2.7888-5.7039-4.756-.2305.2447-.4783.4726-.7417.6816Zm1.0009-.973c2.3615,1.861,4.2104,3.3195,5.7339,4.5195.0622-.1176.1228-.2361.1825-.3547c6.4878,4.9125,7.1626,5.406,15.7766,11.7628.1983-.3708.3902-.7447.5756-1.1219-8.6027-6.1678-9.2692-6.6495-16.0106-11.3578.054-.1205.107-.2409.1585-.362-1.5645-1.0482-3.4504-2.3108-5.8251-3.9022-.1774.2868-.3751.5596-.5914.8163Zm.7878-1.1536c2.3775,1.4997,4.2736,2.6965,5.8513,3.6914.0474-.1221.0932-.2444.1377-.3671c7.1379,4.3113,7.8556,4.7314,16.6888,9.9183.1521-.3895.2977-.7818.436-1.1763-8.7849-4.9981-9.5022-5.4069-16.8757-9.4817.0388-.1236.0758-.2475.1114-.372-1.614-.8517-3.5429-1.8683-5.9337-3.1303-.1168.3174-.256.6241-.4158.9177Zm.5402-1.2875c2.3952,1.1801,4.3336,2.1363,5.96,2.938.0309-.1249.0606-.2501.0884-.3752c7.7325,3.6274,8.5073,3.9805,17.3689,8.0035.1023-.4034.1957-.8096.2803-1.218-8.7681-3.8368-9.553-4.1779-17.5002-7.5379.0215-.1258.0417-.2516.06-.3771-1.6592-.6642-3.6266-1.4507-6.0348-2.4149-.0508.3358-.1256.6636-.2226.9816Zm.2703-1.3688c2.4126.8886,4.3891,1.6179,6.0594,2.2337.0136-.1255.0256-.2513.0357-.3768c8.2556,2.8631,9.1186,3.1548,17.7758,6.0369.0446-.4125.0806-.8266.1084-1.2423-8.5099-2.7038-9.3981-2.9801-17.8429-5.5479.0035-.1249.0054-.2501.0054-.3753-1.6981-.4805-3.698-1.046-6.1187-1.732.0053.1129.0082.2267.0082.3408c0,.2235-.0108.4448-.0313.6629Zm-.0066-1.3919c2.4258.6145,4.4349,1.1244,6.143,1.5579-.0025-.124-.0057-.2469-.0098-.3696c8.6892,2.026,9.6825,2.2527,17.9136,4.064-.0092-.4128-.0265-.8263-.0518-1.2401-8.0353-1.6514-9.076-1.8559-17.8968-3.5554-.0076-.1211-.0164-.2415-.0253-.3616-1.7441-.3013-3.7898-.6541-6.2478-1.0793.0811.3196.1401.6484.1749.9841Zm-.2807-1.358c2.4795.3575,4.5441.6562,6.306.911-.012-.1192-.0247-.2374-.0383-.355c8.9311,1.115,10.1158,1.2604,17.7298,2.1155-.0587-.4056-.125-.8105-.1986-1.2152-7.3829-.7242-8.6352-.8336-17.6227-1.6033-.0171-.1167-.0351-.2327-.0537-.3478-2.1628-.1428-4.3256-.286-6.4885-.4302.144.2991.2665.6085.366.925Zm6.0313-1.0154c-.0215-.1144-.0436-.2279-.0667-.3405c8.9702.1739,10.3892.2005,17.2632.2498-.1036-.3923-.2141-.7834-.3319-1.1732-6.6274.0484-8.124.0769-17.0803.2507-.0268-.1116-.0543-.2222-.0827-.3322-2.2715.0882-4.5429.1761-6.8146.263.1982.2624.3779.539.538.8282c2.1915.0841,4.3834.1692,6.575.2542Zm-.4336-1.843c-.0309-.109-.0628-.2168-.0953-.3243c8.824-.7559,10.4936-.8988,16.5729-1.4924-.1437-.3743-.294-.7467-.4509-1.1169-5.8342.6591-7.5828.8779-16.3294,1.9701-.0364-.1056-.0733-.2106-.1115-.3149-2.3955.3465-4.7914.693-7.1875,1.0375.2431.2172.4711.4511.6817.7002c2.3064-.1542,4.6132-.3069,6.92-.4593Zm-.5932-1.7497c-.0408-.1027-.0821-.2045-.1244-.3057c8.5152-1.64,10.4254-2.007,15.7138-3.0888-.1794-.3522-.3654-.7021-.5573-1.0492-5.0576,1.1194-7.0388,1.5828-15.4208,3.5371-.0461-.099-.0925-.1973-.1399-.295-2.5212.6399-5.0424,1.2787-7.5639,1.9167.2769.164.5415.3471.7919.5472c2.4334-.4217,4.8668-.8422,7.3006-1.2623Zm-.7509-1.6426c-.0498-.0957-.1004-.1906-.1518-.2845c8.0687-2.4531,10.1861-3.0948,14.7302-4.5303-.2109-.3272-.4278-.6512-.6507-.9724-4.3367,1.4532-6.509,2.2091-14.3984,4.9454-.055-.0913-.1102-.1818-.1667-.2722-2.0315.7492-4.0636,1.4978-6.0954,2.2457-.2479.3715-.5361.7132-.8588,1.0192c2.5303-.7179,5.061-1.4345,7.5916-2.1509Zm-.9001-1.5205c-.0584-.0879-.1178-.1748-.1778-.2608c7.5118-3.1754,9.7829-4.1333,13.6586-5.8175-.2384-.2994-.4824-.5956-.7315-.888-3.6961,1.6906-6.0004,2.7742-13.2959,6.1972-.0631-.0832-.1266-.1657-.191-.2472-1.4568.7182-2.9133,1.4367-4.3708,2.1537-.12.3835-.2782.7502-.4695,1.096c1.8594-.7448,3.7185-1.4893,5.5779-2.2334Zm-4.8407-.8459c.8832-.5918,1.766-1.1836,2.6491-1.775-.0426-.0408-.0852-.0816-.1282-.1217c6.2296-4.2762,8.6002-5.8988,11.4311-7.8891-.1415-.1227-.2845-.2441-.4285-.3645c2.9841-2.1496,6.4415-4.6545,15.5733-11.257-.1171-.1382-.2358-.2763-.3565-.4148-9.1583,6.7024-12.5781,9.2001-15.5587,11.3895-.1449-.1176-.2908-.2346-.4379-.3503-2.6523,1.9985-4.9922,3.8055-10.8571,8.3219-.0445-.0376-.0894-.0749-.1342-.1119-.6296.4963-1.2592.9923-1.8888,1.4886.0774.3506.1238.7131.1364,1.0843Zm-.2412-1.4902c.5462-.4555,1.0922-.9108,1.6384-1.3663l-.0736-.0566c5.5438-4.6798,7.8579-6.6271,10.2856-8.7245-.1812-.1309-.3644-.2599-.5488-.3873c2.8619-2.5508,5.8352-5.2207,14.5705-13.044-.1474-.1397-.2965-.2795-.4474-.4189-8.7419,7.9324-11.672,10.584-14.5269,13.1879-.1847-.1236-.371-.246-.5585-.3664-2.2462,2.1171-4.4782,4.2711-9.5771,9.1776l-.0764-.0512c-.3609.3515-.7215.7027-1.082,1.0539.1607.3168.2939.6496.3962.9958Zm9.4347-11.7369c-.2245-.1343-.4515-.2665-.6801-.3964c2.7141-2.9763,5.1939-5.7233,13.3135-14.6869-.1784-.1363-.359-.27219-.5412-.40749C66.3317,18.9335,63.8967,21.6512,61.1977,24.6951c-.2279-.1248-.4578-.2472-.6899-.3673-2.966,3.4912-5.8828,7.0302-8.8148,10.5502.2289.2633.4351.5468.6157.8475c3.3497-3.4511,6.7224-6.8873,10.033-10.3757Zm-2.5995-1.4064c-.2258-.11-.4537-.2175-.6836-.3234c2.5234-3.4185,4.528-6.1706,11.8311-16.15148-.2096-.12835-.4215-.25574-.6356-.38219C62.9949,17.1734,61.0326,19.8873,58.5376,23.3858c-.2283-.1006-.4581-.1989-.6899-.2947-2.4394,3.5845-4.8374,7.2019-7.2456,10.8075.2892.2017.5598.4284.8086.6768c2.782-3.5386,5.5833-7.0671,8.3315-10.632Zm-2.6494-1.1551c-.2213-.0857-.4446-.1694-.6691-.2513c2.274-3.8605,3.841-6.5671,10.159-17.41567-.2403-.11601-.4828-.23077-.7278-.34425C59.6061,15.7214,58.076,18.3851,55.8485,22.3328c-.2226-.0769-.4465-.1518-.6723-.2248-1.9759,3.6916-3.9123,7.4064-5.8642,11.1106.3312.1252.6488.2795.9488.4594c2.2809-3.6266,4.5792-7.2458,6.832-10.8897Zm-2.6683-.9142c-.2229-.0667-.4471-.1315-.6729-.1944c1.9538-4.2819,3.1284-6.9136,8.3289-18.47468-.2488-.09263-.4998-.18399-.753-.27376-5.1159,11.63824-6.264,14.22944-8.154,18.59354-.2264-.0579-.4518-.1123-.6763-.1635-1.5557,3.8298-3.0744,7.676-4.6098,11.514.3568.0402.7038.1119,1.0384.2125c1.8354-3.7359,3.6869-7.4661,5.4987-11.2137Zm-2.6785-.6718c-.2191-.043-.4373-.0828-.6548-.1195c1.5733-4.6757,2.3984-7.2069,6.4042-19.35944-.0458-.01264-.0916-.02528-.1377-.03793-.2324-.06354-.4651-.12518-.6975-.18461C52.7523,13.7353,51.9494,16.2187,50.4594,20.9851c-.2194-.0312-.4383-.0591-.6561-.084-1.1436,3.9736-2.2557,7.9576-3.3807,11.9366.3486,0,.7067-.0095,1.0543.0057c1.4268-3.8785,2.8647-7.7547,4.2691-11.6411Zm-2.692-.3702c-.2093-.0161-.4196-.0303-.6305-.0426c1.1382-5.0649,1.6466-7.4472,4.3945-20.081826-.3066-.048367-.6129-.092939-.9188-.134035C49.2694,13.2709,48.7768,15.5997,47.7466,20.756c-.2078-.0083-.4165-.0146-.6258-.0196-.7117,4.0308-1.3966,8.0676-2.0928,12.1013h.9981c1.0116-4.0011,2.0349-8.0003,3.0279-12.0056ZM44.6485,32.8377c.8601-5.9734,1.3634-9.4298,1.7388-12.1105-.0322-.0003-.0641-.0003-.0963-.0003-.167,0-.3338.0022-.5005.0063.6366-5.3864.8715-7.6112,2.2929-20.49117-.3315-.013277-.6617-.022128-.9917-.027186C45.8054,13.1242,45.5787,15.2969,45.077,20.7635c-.198.0117-.3957.0263-.5921.0443-.1866,2.6772-.4117,6.1523-.8013,12.0299h.9649Zm-1.3365,0c.2232-5.8147.3615-9.2831.4556-11.9531-.1876.0234-.3745.0497-.5608.0781.0799-5.6674.0805-7.7073.1535-20.632789-.3514.02687-.7016.058482-1.0505.09452.0729,12.936869.0729,14.914469.1547,20.665069-.1847.0351-.3684.0727-.5513.1122.0938,2.6276.2299,6.0489.4443,11.636h.9545Zm-1.3258,0c-.3634-5.4793-.5838-8.8706-.7629-11.4742-.1733.0437-.3457.0895-.5175.1372-.5304-5.9253-.7221-7.7458-1.9882-20.542344-.3659.070814-.7303.146994-1.0931.227924c1.419,12.78232,1.6024,14.53552,2.3261,20.53952-.1689.0534-.3372.1088-.5039.1666.3577,2.5233.8338,5.8008,1.5743,10.9453h.9652Zm-1.3448,0c-.8626-5.001-1.4148-8.2257-1.8483-10.7091-.1569.0594-.3132.121-.4686.1839-1.1982-6.1384-1.5364-7.7259-4.1052-20.21232-.3748.11823-.7474.24151-1.1178.36954C35.8248,14.9109,36.1462,16.4314,37.5702,22.6337c-.1518.0677-.3025.1375-.4527.2083.5932,2.3646,1.3674,5.4123,2.5259,9.9957h.998Zm-1.3943,0c-1.2472-4.4133-2.0839-7.3858-2.7403-9.6957-.1402.0715-.2794.1442-.4177.2185-1.9175-6.2816-2.3608-7.6413-6.1671-19.63989-.3776.16659-.7521.33888-1.1237.51622C32.7539,16.1567,33.1729,17.4547,35.3477,23.7743c-.1345.0784-.268.158-.4006.239.7884,2.1521,1.7971,4.8894,3.2436,8.8244h1.0564Zm-1.4802,0c-1.4959-3.746-2.548-6.3872-3.3831-8.4704-.1232.0797-.2457.1606-.3672.2428-2.6766-6.335-3.1906-7.4854-8.142-18.83156-.3742.21655-.7442.43846-1.1102.66607C29.8535,17.6785,30.3385,18.7752,33.3001,25.1127c-.1171.0857-.2336.1723-.3492.2596.9255,1.8866,2.0842,4.2401,3.6702,7.4654h1.1458Zm-1.6099,0c-1.5917-3.0237-2.7681-5.2621-3.7195-7.0652-.1067.0853-.2125.1716-.3176.2585-3.4586-6.2819-4.0194-7.2495-10.0011-17.79842-.3637.2668-.723.5393-1.077.81748C27.1429,19.4548,27.673,20.3785,31.4382,26.6187c-.1007.0901-.2005.1811-.2993.2728.9842,1.5664,2.183,3.4701,3.7412,5.9462h1.2769Zm-1.7988,0c-1.5152-2.2675-2.698-4.0387-3.6809-5.5068-.1067.1043-.2125.2099-.317.3161l.018-.0183c-4.2597-6.1099-4.8507-6.9217-11.7329-16.5444-.3152.2889-.6252.5826-.9302.8807c6.9687,9.4652,7.5336,10.2464,12.084,16.2726-.0944.1027-.1875.2061-.2797.3101.9333,1.1883,2.0299,2.582,3.373,4.29h1.4657Zm-2.0709,0l-3.1748-3.8165c-.0887.1059-.1765.2124-.263.3199-5.038-5.8213-5.6543-6.5057-13.2826-15.106-.2801.3199-.5545.6442-.8232.9723c7.6845,8.4278,8.2794,9.09,13.6009,14.7846-.0818.1094-.1623.2194-.2419.3307l4.1846,4.3062v-1.7912Zm0,2.4047l-4.5347-4.4171-.2242.3389L12.8913,17.6615c-.2409.3474-.4758.6986-.7047,1.0533c8.2329,7.3204,8.8603,7.8843,14.9156,13.1363-.0686.1157-.1358.2317-.2021.3481l5.3872,4.4914v-1.4482Zm0,1.9584l-5.6761-4.4737c-.0622.1179-.1228.2358-.1825.3547-6.4879-4.9125-7.1626-5.4063-15.7766-11.7628-.1986.3708-.3903.7447-.5756,1.1219c8.6026,6.1678,9.2692,6.6495,16.0105,11.3578l.0411-.0898c-.0685.1502-.1348.301-.1996.4518l6.3588,4.2597v-1.2196Zm0,1.6593l-6.5814-4.1513c-.0473.1221-.0931.2444-.1376.367-7.138-4.3115-7.8556-4.7313-16.68881-9.9182-.1525.3895-.29774.7815-.43603,1.1763c8.78484,4.9981,9.50224,5.4069,16.87574,9.4817-.0389.1236-.0758.2478-.1115.372l7.0796,3.735v-1.0625Zm0,1.4532l-7.2302-3.5636c-.0313.1249-.0606.2497-.0884.3749-7.7325-3.6271-8.5073-3.9802-17.3689-8.0035-.1023.4037-.19576.8099-.2807,1.2183c8.7684,3.8368,9.5534,4.1779,17.5006,7.5379-.0215.1258-.0417.2516-.06.3771l7.5276,3.0126v-.9537Zm0,1.3103l-7.5999-2.8008c-.0136.1255-.0256.2513-.0357.3771-8.2557-2.8634-9.1186-3.1551-17.7759-6.0375-.04452.4128-.08051.8273-.1083,1.2426c8.5098,2.7038,9.398,2.9804,17.8428,5.5479-.0034.1252-.0053.2501-.0057.3753l7.6827,2.1749v-.8795Zm0,1.2133l-7.677-1.9464c.0022.124.0054.2469.0098.3693-8.6892-2.0257-9.6825-2.2524-17.91353-4.0637.00915.4128.02652.8263.05178,1.2398c8.03495,1.6517,9.07595,1.8562,17.89685,3.5554.0075.1214.0161.2418.0252.3619l7.6069,1.3145v-.8308Zm0,1.15l-7.5592-1.0915c.012.1192.0246.2374.0382.355-8.931-1.115-10.1157-1.2604-17.72978-2.1158.05872.4056.12471.8108.1986,1.2155c7.38298.7242,8.63488.8333,17.62278,1.6033.017.1167.035.2324.0536.3474l7.3758.4897v-.8036Zm0,1.1159l-7.2845-.281c.0215.1144.0436.2279.0666.3405-8.9702-.1739-10.3891-.2005-17.26311-.2501.10356.3923.21407.7837.33185,1.1731c6.62736-.048,8.12396-.0765,17.08026-.2503.0269.1116.0544.2222.0828.3322l6.9861-.2696v-.7948Zm0,1.1074l-6.851.4546c.031.109.0628.2168.0954.3243-8.824.7559-10.4937.8987-16.57295,1.4924.14366.3743.29395.7467.45087,1.1169c5.83428-.6591,7.58288-.8779,16.32948-1.9701.0363.1056.0733.2105.1111.3146l6.4371-.9294v-.8033Zm0,1.1229l-6.2577,1.0814c.0407.1027.0821.2045.1244.3054-8.5152,1.6403-10.4258,2.0073-15.7138,3.0888.1793.3524.3653.7024.5573,1.0492c5.0575-1.1191,7.0385-1.5825,15.4208-3.5368.0457.099.0925.1973.1398.2947l5.7292-1.452v-.8307Zm0,1.1642l-5.5072,1.5594c.0502.0958.1007.1907.1522.2849-8.0688,2.4527-10.1864,3.0948-14.7303,4.5303.2109.3272.4279.6512.6508.9724c4.3367-1.4532,6.509-2.2091,14.3984-4.9457.0549.0916.1102.1821.1667.2725l4.8694-1.7943v-.8795Zm0,1.2361l-4.6067,1.8442c.0584.0876.1178.1745.1778.2605-7.5118,3.1757-9.7833,4.1335-13.6587,5.8175.2384.2997.4825.5959.7316.8883c3.6961-1.6906,6.0003-2.7743,13.2958-6.1972.0632.0832.1267.1657.1911.2472l3.8691-1.9068v-.9537Z" clip-rule="evenodd" fill="#3460d9" fill-rule="evenodd"/><path d="M128.204,20.7271h2.513l9.58,22.0145h-2.512L129.461,23.306l-8.325,19.4356h-2.513l9.581-22.0145Z" fill="#303b59"/><path d="M101.979,20.7271h9.043c.9,0,1.743.152,2.529.4558.785.3041,1.465.7182,2.041,1.2423s1.026,1.1479,1.351,1.8712c.325.7236.487,1.4939.487,2.3117c0,1.0274-.256,1.9341-.77,2.7202-.513.7862-1.24,1.3578-2.183,1.714.545.1467,1.068.3775,1.571.692.502.3146.942.7024,1.319,1.1637.377.4612.681.9957.911,1.604.23.6078.345,1.2891.345,2.044c0,.8595-.162,1.6669-.486,2.4218-.325.7545-.775,1.4099-1.351,1.9653-.576.5557-1.262.9961-2.058,1.321-.795.325-1.664.4875-2.607.4875h-10.142v-22.0145Zm10.142,19.876c.671,0,1.262-.1101,1.775-.3304.513-.22.948-.5137,1.304-.8804.356-.367.628-.7966.816-1.2894.189-.4929.283-1.0116.283-1.5569c0-.545-.094-1.0641-.283-1.5566-.188-.4928-.46-.9227-.816-1.2894-.356-.3671-.791-.6604-1.304-.8808-.513-.22-1.104-.33-1.775-.33h-7.881v8.1139h7.881Zm-1.099-10.2527c.607,0,1.162-.0993,1.665-.2988.503-.1988.932-.4663,1.288-.802.356-.3354.633-.7337.832-1.1949s.298-.9433.298-1.4466-.099-.9853-.298-1.4465c-.199-.4616-.476-.8599-.832-1.1953s-.785-.6028-1.288-.802-1.058-.2987-1.665-.2987h-6.782v7.4848h6.782Z" fill="#303b59"/><path d="M158.519,48.2524h17.945l-.934,2.138h-7.325v.0629v3.7798v16.0263h-2.355v-14.1966-5.6095-.0629h-8.258l.927-2.138Z" fill="#303b59"/><path d="M141.812,48.2524h15.195l-.933,2.138h-12.001v7.4822h10.259l-.93,2.1379h-9.329v8.111h12.409l.93,2.1379h-15.6v-22.007Z" fill="#303b59"/><path d="M109.398,70.6367c-1.486,0-2.957-.1783-4.412-.5345-1.391-.3405-2.633-.8823-3.727-1.6252l.729-1.6758c.67.3143,1.345.5763,2.025.7859s1.345.3775,1.994.5033c.649.1255,1.272.2146,1.868.2671.597.0525,1.136.0787,1.617.0787.754,0,1.534-.0629,2.34-.1887s1.544-.33,2.213-.6133c.67-.2829,1.225-.6601,1.665-1.1317.439-.4713.659-1.053.659-1.7447s-.214-1.2837-.644-1.7762c-.429-.4926-.963-.9117-1.601-1.2576-.638-.3458-1.329-.6341-2.072-.8645-.744-.2308-1.419-.4401-2.026-.6288-.879-.2516-1.826-.5396-2.842-.8646-1.015-.325-1.957-.7334-2.826-1.2262-.868-.4925-1.596-1.1001-2.182-1.8234-.586-.723-.879-1.6188-.879-2.688c0-1.0267.262-1.9017.785-2.625.523-.723,1.204-1.3151,2.041-1.7763.837-.4609,1.774-.8017,2.81-1.0217s2.068-.33,3.093-.33c1.487,0,2.863.178,4.129.5345c1.267.3563,2.528.9013,3.784,1.6347l-.711,1.6207c-1.13-.4909-2.297-.8803-3.496-1.1649-1.194-.2829-2.408-.4242-3.643-.4242-.837,0-1.649.0784-2.434.2358-.784.1571-1.475.3876-2.072.6914s-1.073.6759-1.429,1.1162c-.356.44-.533.9326-.533,1.4775c0,.6288.23,1.1789.69,1.6505.461.4717,1.021.8804,1.68,1.2262.66.3459,1.345.6288,2.057.8488s1.308.4034,1.79.5501c1.005.2933,2.03.6079,3.077.9433c1.047.335,1.999.7542,2.858,1.2575.858.5029,1.559,1.1263,2.103,1.8705.545.7441.817,1.6713.817,2.7821c0,1.132-.288,2.0804-.864,2.8454-.575.765-1.313,1.3726-2.213,1.8234-.901.4505-1.9.7701-2.999.9588s-2.172.2829-3.219.2829Z" fill="#303b59"/><path id="eMdvjktixC78" d="M170.498,20.7271h2.513l9.58,22.0145h-2.513L171.754,23.306L163.43,42.7416h-2.513l9.581-22.0145Z" transform="translate(-29.942005 9.12035)" fill="#303b59"/><path d="M128.204,70.267h2.513l9.58-22.0146h-2.512l-8.324,19.4357-8.325-19.4357h-2.513l9.581,22.0146Z" fill="#303b59"/><path d="M182.473,48.2451h2.513l9.581,22.0146h-2.513L183.73,50.824l-8.324,19.4357h-2.513l9.58-22.0146Z" fill="#303b59"/><path d="M191.826,20.7271c.514,0,.98.1194,1.398.3587.417.239.746.5675.985.986.239.4182.358.8823.358,1.3916s-.122.9758-.366,1.3991c-.244.4236-.576.7578-.997,1.0018-.42.2444-.885.3664-1.394.3664-.508,0-.971-.122-1.389-.3664-.418-.244-.748-.5769-.989-.9977-.242-.421-.362-.8835-.362-1.3877s.12-.9667.362-1.3875c.241-.421.572-.7536.993-.998.42-.244.887-.3663,1.401-.3663Zm-.016,5.0749c.431,0,.822-.104,1.172-.3117.351-.208.627-.4899.83-.8459.202-.3559.303-.7498.303-1.181c0-.4315-.098-.8226-.296-1.1731-.197-.3509-.469-.6279-.817-.8305s-.74-.3038-1.176-.3038-.83.1024-1.183.3076c-.353.2055-.63.4849-.83.8384-.199.3531-.3.7457-.3,1.1769c0,.4315.101.8238.3,1.1772.2.3534.475.6326.826.838.35.2052.741.3079,1.171.3079Zm1.425-2.7907c0,.2286-.053.4233-.159.5845-.107.1613-.259.2833-.456.3664l.685,1.0524h-.669l-.607-.9354h-.086-.607v.9354h-.67v-3.0714h1.277c.399,0,.715.0961.946.2886.231.1922.346.452.346.7795Zm-1.331.5457c.218,0,.387-.0481.506-.1442.119-.0964.179-.2301.179-.4015c0-.1716-.06-.3041-.179-.3976-.119-.0936-.288-.1404-.506-.1404h-.576v1.0837h.576Z" fill="#303b59"/><path d="M213.033,59.4534h-1.256v2.523h-.565v-5.5018h.565v2.468h1.256l1.861-2.468h.628l-2.041,2.6722l2.159,2.8296h-.668l-1.939-2.523Zm6.956,1.0533h-3.062l-.659,1.4697h-.605l2.512-5.5018h.574l2.512,5.5018h-.613l-.659-1.4697Zm-.212-.4716l-1.319-2.9554-1.319,2.9554h2.638Zm2.535-3.5605h4.02v.4951h-3.447v1.7996h1.798c.649,0,1.142.1337,1.48.4012.337.2671.506.6547.506,1.163c0,.5295-.182.9354-.545,1.2183-.364.2829-.886.4246-1.566.4246h-2.246v-5.5018Zm2.238,5.038c.507,0,.891-.097,1.15-.2908.259-.1941.388-.4821.388-.8646c0-.3771-.127-.6591-.38-.845-.254-.1859-.64-.2791-1.158-.2791h-1.665v2.2795h1.665Zm7.356-.0392v.503h-3.887v-5.5018h3.769v.503h-3.188v1.9571h2.842v.495h-2.842v2.0437h3.306Zm5.597-4.9988v5.5018h-.573v-4.9988h-2.654l-.063,1.8388c-.026.76-.087,1.3717-.184,1.8354-.097.4641-.244.8096-.444,1.0378-.199.2276-.463.3418-.793.3418-.141,0-.287-.0184-.439-.055l.047-.5188c.089.0209.175.0313.259.0313.23,0,.417-.0917.561-.275.144-.1834.253-.4676.326-.8529.073-.3851.123-.8946.149-1.5285l.079-2.3579h3.729Zm4.153,1.965c.648,0,1.144.1467,1.487.44s.514.723.514,1.2892c0,.5921-.182,1.0413-.545,1.3476-.364.3066-.889.46-1.574.46h-2.183v-5.5018h.574v1.965h1.727Zm-.134,3.073c.508,0,.894-.1129,1.158-.3382.264-.2251.396-.5577.396-.998c0-.8438-.518-1.2655-1.554-1.2655h-1.593v2.6017h1.593Z" fill="#303b59"/><path d="M213.826,53.796c-.545,0-1.035-.1208-1.472-.362-.437-.2409-.78-.5747-1.029-1.0018-.248-.427-.373-.9053-.373-1.4345s.125-1.0072.373-1.4343c.249-.427.593-.7612,1.033-1.0024.439-.2408.931-.3613,1.475-.3613.409,0,.785.068,1.131.2042.345.1363.638.3354.879.5975l-.369.3692c-.429-.4346-.971-.6521-1.625-.6521-.434,0-.83.0995-1.185.2987-.356.1991-.635.4716-.836.8175-.202.3455-.303.7334-.303,1.163c0,.4299.101.8175.303,1.1633.201.3458.48.6183.836.8175.355.1988.751.2984,1.185.2984.659,0,1.201-.2197,1.625-.6601l.369.3693c-.241.2623-.535.4625-.883.6012-.348.1391-.726.2087-1.134.2087Zm6.476-2.8846c.382.0787.673.2317.871.4596.199.2279.299.5254.299.8921c0,.4767-.169.8437-.507,1.1004-.337.2567-.833.385-1.487.385h-2.434v-5.5017h2.285c.586,0,1.044.1205,1.373.3613.33.2412.495.5899.495,1.0458c0,.3088-.079.5696-.235.782-.158.2122-.377.3705-.66.4755Zm-2.685-.1729h1.68c.424,0,.75-.0867.978-.2596.227-.1726.341-.4245.341-.7542c0-.3304-.114-.582-.341-.7546-.228-.1732-.554-.2595-.978-.2595h-1.68v2.0279Zm1.861,2.5463c.947,0,1.421-.3534,1.421-1.0609c0-.6917-.474-1.0375-1.421-1.0375h-1.861v2.0984h1.861Zm7.332-.0392v.5029h-3.886v-5.5017h3.768v.503h-3.187v1.9571h2.842v.495h-2.842v2.0437h3.305Zm4.883-4.4958h-1.931v4.9987h-.573v-4.9987h-1.932v-.503h4.436v.503Z" fill="#303b59"/><path d="M211.212,64.7576h.573v4.5584l3.517-4.5584h.526v5.5017h-.573v-4.5505l-3.517,4.5505h-.526v-5.5017Zm11.061,0v5.5017h-.573v-2.5388h-3.439v2.5388h-.581v-5.5017h.581v2.4521h3.439v-2.4521h.573Zm4.255,5.5488c-.544,0-1.035-.1204-1.472-.3616-.437-.2409-.78-.5751-1.028-1.0021-.249-.4271-.373-.9051-.373-1.4343s.124-1.0071.373-1.4342c.248-.4271.592-.7612,1.032-1.0024.44-.2409.932-.3614,1.476-.3614.408,0,.785.068,1.13.2043.346.1362.639.3354.879.5974l-.369.3693c-.429-.435-.97-.6522-1.624-.6522-.435,0-.83.0996-1.186.2987-.356.1989-.634.4717-.836.8172-.201.3458-.302.7337-.302,1.1633s.101.8175.302,1.1633c.202.3459.48.6184.836.8175.356.1989.751.2984,1.186.2984.659,0,1.201-.22,1.624-.66l.369.3692c-.24.2624-.535.4625-.883.6013-.348.1391-.726.2083-1.134.2083Zm6.743-5.0459h-1.931v4.9988h-.573v-4.9988h-1.931v-.5029h4.435v.5029Zm3.078-.5029c.701,0,1.251.1675,1.648.5029.398.3354.597.7966.597,1.3833s-.199,1.0467-.597,1.3793c-.397.3328-.947.4991-1.648.4991h-1.476v1.7371h-.581v-5.5017h2.057Zm-.016,3.2538c.544,0,.961-.1192,1.248-.3576.288-.2383.432-.575.432-1.01c0-.4454-.144-.7874-.432-1.0258-.287-.2383-.704-.3575-1.248-.3575h-1.46v2.7509h1.46Zm7.654-3.2538l-2.496,4.6292c-.178.3303-.386.575-.624.735s-.499.2396-.781.2396c-.21,0-.435-.0496-.676-.1492l.165-.4717c.189.0734.361.1104.518.1104.362,0,.657-.197.887-.5899l.158-.2671-2.23-4.2363h.62l1.916,3.7254l1.962-3.7254h.581Zm6.61,0v5.5017h-.558v-4.4013l-2.158,3.7017h-.275l-2.159-3.6783v4.3779h-.557v-5.5017h.479l2.386,4.0788l2.363-4.0788h.479Zm5.739,4.9987v.503h-3.886v-5.5017h3.768v.5029h-3.187v1.9571h2.841v.495h-2.841v2.0437h3.305Zm5.879-4.9987v5.5017h-.573v-2.5388h-3.438v2.5388h-.581v-5.5017h.581v2.4521h3.438v-2.4521h.573Zm5.449.5029h-1.932v4.9988h-.573v-4.9988h-1.931v-.5029h4.436v.5029Z" fill="#303b59"/><path d="M136.285,35.0991h-13.65v2.1386h13.65v-2.1386Z" fill="#303b59"/><path d="M178.578,35.0991h-13.649v2.1386h13.649v-2.1386Z" fill="#303b59"/><path d="M190.554,62.6172h-13.65v2.1385h13.65v-2.1385Z" fill="#303b59"/>
<script><![CDATA[
!function(t,n){"object"==typeof exports&&"undefined"!=typeof module?module.exports=n():"function"==typeof define&&define.amd?define(n):((t="undefined"!=typeof globalThis?globalThis:t||self).__SVGATOR_PLAYER__=t.__SVGATOR_PLAYER__||{},t.__SVGATOR_PLAYER__["5c7f360c"]=n())}(this,(function(){"use strict";function t(t,n){var e=Object.keys(t);if(Object.getOwnPropertySymbols){var r=Object.getOwnPropertySymbols(t);n&&(r=r.filter((function(n){return Object.getOwnPropertyDescriptor(t,n).enumerable}))),e.push.apply(e,r)}return e}function n(n){for(var e=1;e<arguments.length;e++){var r=null!=arguments[e]?arguments[e]:{};e%2?t(Object(r),!0).forEach((function(t){o(n,t,r[t])})):Object.getOwnPropertyDescriptors?Object.defineProperties(n,Object.getOwnPropertyDescriptors(r)):t(Object(r)).forEach((function(t){Object.defineProperty(n,t,Object.getOwnPropertyDescriptor(r,t))}))}return n}function e(t){return(e="function"==typeof Symbol&&"symbol"==typeof Symbol.iterator?function(t){return typeof t}:function(t){return t&&"function"==typeof Symbol&&t.constructor===Symbol&&t!==Symbol.prototype?"symbol":typeof t})(t)}function r(t,n){if(!(t instanceof n))throw new TypeError("Cannot call a class as a function")}function i(t,n){for(var e=0;e<n.length;e++){var r=n[e];r.enumerable=r.enumerable||!1,r.configurable=!0,"value"in r&&(r.writable=!0),Object.defineProperty(t,r.key,r)}}function u(t,n,e){return n&&i(t.prototype,n),e&&i(t,e),t}function o(t,n,e){return n in t?Object.defineProperty(t,n,{value:e,enumerable:!0,configurable:!0,writable:!0}):t[n]=e,t}function a(t){return(a=Object.setPrototypeOf?Object.getPrototypeOf:function(t){return t.__proto__||Object.getPrototypeOf(t)})(t)}function l(t,n){return(l=Object.setPrototypeOf||function(t,n){return t.__proto__=n,t})(t,n)}function s(){if("undefined"==typeof Reflect||!Reflect.construct)return!1;if(Reflect.construct.sham)return!1;if("function"==typeof Proxy)return!0;try{return Boolean.prototype.valueOf.call(Reflect.construct(Boolean,[],(function(){}))),!0}catch(t){return!1}}function f(t,n,e){return(f=s()?Reflect.construct:function(t,n,e){var r=[null];r.push.apply(r,n);var i=new(Function.bind.apply(t,r));return e&&l(i,e.prototype),i}).apply(null,arguments)}function c(t,n){if(n&&("object"==typeof n||"function"==typeof n))return n;if(void 0!==n)throw new TypeError("Derived constructors may only return object or undefined");return function(t){if(void 0===t)throw new ReferenceError("this hasn't been initialised - super() hasn't been called");return t}(t)}function h(t,n,e){return(h="undefined"!=typeof Reflect&&Reflect.get?Reflect.get:function(t,n,e){var r=function(t,n){for(;!Object.prototype.hasOwnProperty.call(t,n)&&null!==(t=a(t)););return t}(t,n);if(r){var i=Object.getOwnPropertyDescriptor(r,n);return i.get?i.get.call(e):i.value}})(t,n,e||t)}function v(t){return function(t){if(Array.isArray(t))return y(t)}(t)||function(t){if("undefined"!=typeof Symbol&&null!=t[Symbol.iterator]||null!=t["@@iterator"])return Array.from(t)}(t)||function(t,n){if(!t)return;if("string"==typeof t)return y(t,n);var e=Object.prototype.toString.call(t).slice(8,-1);"Object"===e&&t.constructor&&(e=t.constructor.name);if("Map"===e||"Set"===e)return Array.from(t);if("Arguments"===e||/^(?:Ui|I)nt(?:8|16|32)(?:Clamped)?Array$/.test(e))return y(t,n)}(t)||function(){throw new TypeError("Invalid attempt to spread non-iterable instance.\nIn order to be iterable, non-array objects must have a [Symbol.iterator]() method.")}()}function y(t,n){(null==n||n>t.length)&&(n=t.length);for(var e=0,r=new Array(n);e<n;e++)r[e]=t[e];return r}Number.isInteger||(Number.isInteger=function(t){return"number"==typeof t&&isFinite(t)&&Math.floor(t)===t}),Number.EPSILON||(Number.EPSILON=2220446049250313e-31);var g=d(Math.pow(10,-6));function d(t){var n=arguments.length>1&&void 0!==arguments[1]?arguments[1]:6;if(Number.isInteger(t))return t;var e=Math.pow(10,n);return Math.round((+t+Number.EPSILON)*e)/e}function p(t,n){var e=arguments.length>2&&void 0!==arguments[2]?arguments[2]:g;return Math.abs(t-n)<e}var m=Math.PI/180;function b(t){return t}function w(t,n,e){var r=1-e;return 3*e*r*(t*r+n*e)+e*e*e}function x(){var t=arguments.length>0&&void 0!==arguments[0]?arguments[0]:0,n=arguments.length>1&&void 0!==arguments[1]?arguments[1]:0,e=arguments.length>2&&void 0!==arguments[2]?arguments[2]:1,r=arguments.length>3&&void 0!==arguments[3]?arguments[3]:1;return t<0||t>1||e<0||e>1?null:p(t,n)&&p(e,r)?b:function(i){if(i<=0)return t>0?i*n/t:0===n&&e>0?i*r/e:0;if(i>=1)return e<1?1+(i-1)*(r-1)/(e-1):1===e&&t<1?1+(i-1)*(n-1)/(t-1):1;for(var u,o=0,a=1;o<a;){var l=w(t,e,u=(o+a)/2);if(p(i,l))break;l<i?o=u:a=u}return w(n,r,u)}}function A(){return 1}function k(t){return 1===t?1:0}function _(){var t=arguments.length>0&&void 0!==arguments[0]?arguments[0]:1,n=arguments.length>1&&void 0!==arguments[1]?arguments[1]:0;if(1===t){if(0===n)return k;if(1===n)return A}var e=1/t;return function(t){return t>=1?1:(t+=n*e)-t%e}}var S=Math.sin,O=Math.cos,j=Math.acos,M=Math.asin,P=Math.tan,E=Math.atan2,I=Math.PI/180,R=180/Math.PI,F=Math.sqrt,N=function(){function t(){var n=arguments.length>0&&void 0!==arguments[0]?arguments[0]:1,e=arguments.length>1&&void 0!==arguments[1]?arguments[1]:0,i=arguments.length>2&&void 0!==arguments[2]?arguments[2]:0,u=arguments.length>3&&void 0!==arguments[3]?arguments[3]:1,o=arguments.length>4&&void 0!==arguments[4]?arguments[4]:0,a=arguments.length>5&&void 0!==arguments[5]?arguments[5]:0;r(this,t),this.m=[n,e,i,u,o,a],this.i=null,this.w=null,this.s=null}return u(t,[{key:"determinant",get:function(){var t=this.m;return t[0]*t[3]-t[1]*t[2]}},{key:"isIdentity",get:function(){if(null===this.i){var t=this.m;this.i=1===t[0]&&0===t[1]&&0===t[2]&&1===t[3]&&0===t[4]&&0===t[5]}return this.i}},{key:"point",value:function(t,n){var e=this.m;return{x:e[0]*t+e[2]*n+e[4],y:e[1]*t+e[3]*n+e[5]}}},{key:"translateSelf",value:function(){var t=arguments.length>0&&void 0!==arguments[0]?arguments[0]:0,n=arguments.length>1&&void 0!==arguments[1]?arguments[1]:0;if(!t&&!n)return this;var e=this.m;return e[4]+=e[0]*t+e[2]*n,e[5]+=e[1]*t+e[3]*n,this.w=this.s=this.i=null,this}},{key:"rotateSelf",value:function(){var t=arguments.length>0&&void 0!==arguments[0]?arguments[0]:0;if(t%=360){var n=S(t*=I),e=O(t),r=this.m,i=r[0],u=r[1];r[0]=i*e+r[2]*n,r[1]=u*e+r[3]*n,r[2]=r[2]*e-i*n,r[3]=r[3]*e-u*n,this.w=this.s=this.i=null}return this}},{key:"scaleSelf",value:function(){var t=arguments.length>0&&void 0!==arguments[0]?arguments[0]:1,n=arguments.length>1&&void 0!==arguments[1]?arguments[1]:1;if(1!==t||1!==n){var e=this.m;e[0]*=t,e[1]*=t,e[2]*=n,e[3]*=n,this.w=this.s=this.i=null}return this}},{key:"skewSelf",value:function(t,n){if(n%=360,(t%=360)||n){var e=this.m,r=e[0],i=e[1],u=e[2],o=e[3];t&&(t=P(t*I),e[2]+=r*t,e[3]+=i*t),n&&(n=P(n*I),e[0]+=u*n,e[1]+=o*n),this.w=this.s=this.i=null}return this}},{key:"resetSelf",value:function(){var t=arguments.length>0&&void 0!==arguments[0]?arguments[0]:1,n=arguments.length>1&&void 0!==arguments[1]?arguments[1]:0,e=arguments.length>2&&void 0!==arguments[2]?arguments[2]:0,r=arguments.length>3&&void 0!==arguments[3]?arguments[3]:1,i=arguments.length>4&&void 0!==arguments[4]?arguments[4]:0,u=arguments.length>5&&void 0!==arguments[5]?arguments[5]:0,o=this.m;return o[0]=t,o[1]=n,o[2]=e,o[3]=r,o[4]=i,o[5]=u,this.w=this.s=this.i=null,this}},{key:"recomposeSelf",value:function(){var t=arguments.length>0&&void 0!==arguments[0]?arguments[0]:null,n=arguments.length>1&&void 0!==arguments[1]?arguments[1]:null,e=arguments.length>2&&void 0!==arguments[2]?arguments[2]:null,r=arguments.length>3&&void 0!==arguments[3]?arguments[3]:null,i=arguments.length>4&&void 0!==arguments[4]?arguments[4]:null;return this.isIdentity||this.resetSelf(),t&&(t.x||t.y)&&this.translateSelf(t.x,t.y),n&&this.rotateSelf(n),e&&(e.x&&this.skewSelf(e.x,0),e.y&&this.skewSelf(0,e.y)),!r||1===r.x&&1===r.y||this.scaleSelf(r.x,r.y),i&&(i.x||i.y)&&this.translateSelf(i.x,i.y),this}},{key:"decompose",value:function(){var t=arguments.length>0&&void 0!==arguments[0]?arguments[0]:0,n=arguments.length>1&&void 0!==arguments[1]?arguments[1]:0,e=this.m,r=e[0]*e[0]+e[1]*e[1],i=[[e[0],e[1]],[e[2],e[3]]],u=F(r);if(0===u)return{origin:{x:d(e[4]),y:d(e[5])},translate:{x:d(t),y:d(n)},scale:{x:0,y:0},skew:{x:0,y:0},rotate:0};i[0][0]/=u,i[0][1]/=u;var o=e[0]*e[3]-e[1]*e[2]<0;o&&(u=-u);var a=i[0][0]*i[1][0]+i[0][1]*i[1][1];i[1][0]-=i[0][0]*a,i[1][1]-=i[0][1]*a;var l=F(i[1][0]*i[1][0]+i[1][1]*i[1][1]);if(0===l)return{origin:{x:d(e[4]),y:d(e[5])},translate:{x:d(t),y:d(n)},scale:{x:d(u),y:0},skew:{x:0,y:0},rotate:0};i[1][0]/=l,i[1][1]/=l,a/=l;var s=0;return i[1][1]<0?(s=j(i[1][1])*R,i[0][1]<0&&(s=360-s)):s=M(i[0][1])*R,o&&(s=-s),a=E(a,F(i[0][0]*i[0][0]+i[0][1]*i[0][1]))*R,o&&(a=-a),{origin:{x:d(e[4]),y:d(e[5])},translate:{x:d(t),y:d(n)},scale:{x:d(u),y:d(l)},skew:{x:d(a),y:0},rotate:d(s)}}},{key:"clone",value:function(){var t=this.m;return new this.constructor(t[0],t[1],t[2],t[3],t[4],t[5])}},{key:"toString",value:function(){var t=arguments.length>0&&void 0!==arguments[0]?arguments[0]:" ";if(null===this.s){var n=this.m.map((function(t){return d(t)}));1===n[0]&&0===n[1]&&0===n[2]&&1===n[3]?this.s="translate("+n[4]+t+n[5]+")":this.s="matrix("+n.join(t)+")"}return this.s}}],[{key:"create",value:function(t){return t?Array.isArray(t)?f(this,v(t)):t instanceof this?t.clone():(new this).recomposeSelf(t.origin,t.rotate,t.skew,t.scale,t.translate):new this}}]),t}();function T(t,n,e){return t>=.5?e:n}function q(t,n,e){return 0===t||n===e?n:t*(e-n)+n}function B(t,n,e){var r=q(t,n,e);return r<=0?0:r}function L(t,n,e){var r=q(t,n,e);return r<=0?0:r>=1?1:r}function C(t,n,e){return 0===t?n:1===t?e:{x:q(t,n.x,e.x),y:q(t,n.y,e.y)}}function D(t,n,e){var r=function(t,n,e){return Math.round(q(t,n,e))}(t,n,e);return r<=0?0:r>=255?255:r}function z(t,n,e){return 0===t?n:1===t?e:{r:D(t,n.r,e.r),g:D(t,n.g,e.g),b:D(t,n.b,e.b),a:q(t,null==n.a?1:n.a,null==e.a?1:e.a)}}function V(t,n){for(var e=[],r=0;r<t;r++)e.push(n);return e}function G(t,n){if(--n<=0)return t;var e=(t=Object.assign([],t)).length;do{for(var r=0;r<e;r++)t.push(t[r])}while(--n>0);return t}var Y,$=function(){function t(n){r(this,t),this.list=n,this.length=n.length}return u(t,[{key:"setAttribute",value:function(t,n){for(var e=this.list,r=0;r<this.length;r++)e[r].setAttribute(t,n)}},{key:"removeAttribute",value:function(t){for(var n=this.list,e=0;e<this.length;e++)n[e].removeAttribute(t)}},{key:"style",value:function(t,n){for(var e=this.list,r=0;r<this.length;r++)e[r].style[t]=n}}]),t}(),U=/-./g,Q=function(t,n){return n.toUpperCase()};function H(t){return"function"==typeof t?t:T}function J(t){return t?"function"==typeof t?t:Array.isArray(t)?function(t){var n=arguments.length>1&&void 0!==arguments[1]?arguments[1]:b;if(!Array.isArray(t))return n;switch(t.length){case 1:return _(t[0])||n;case 2:return _(t[0],t[1])||n;case 4:return x(t[0],t[1],t[2],t[3])||n}return n}(t,null):function(t,n){var e=arguments.length>2&&void 0!==arguments[2]?arguments[2]:b;switch(t){case"linear":return b;case"steps":return _(n.steps||1,n.jump||0)||e;case"bezier":case"cubic-bezier":return x(n.x1||0,n.y1||0,n.x2||0,n.y2||0)||e}return e}(t.type,t.value,null):null}function Z(t,n,e){var r=arguments.length>3&&void 0!==arguments[3]&&arguments[3],i=n.length-1;if(t<=n[0].t)return r?[0,0,n[0].v]:n[0].v;if(t>=n[i].t)return r?[i,1,n[i].v]:n[i].v;var u,o=n[0],a=null;for(u=1;u<=i;u++){if(!(t>n[u].t)){a=n[u];break}o=n[u]}return null==a?r?[i,1,n[i].v]:n[i].v:o.t===a.t?r?[u,1,a.v]:a.v:(t=(t-o.t)/(a.t-o.t),o.e&&(t=o.e(t)),r?[u,t,e(t,o.v,a.v)]:e(t,o.v,a.v))}function K(t,n){var e=arguments.length>2&&void 0!==arguments[2]?arguments[2]:null;return t&&t.length?"function"!=typeof n?null:("function"!=typeof e&&(e=null),function(r){var i=Z(r,t,n);return null!=i&&e&&(i=e(i)),i}):null}function W(t,n){return t.t-n.t}function X(t,n,r,i,u){var o,a="@"===r[0],l="#"===r[0],s=Y[r],f=T;switch(a?(o=r.substr(1),r=o.replace(U,Q)):l&&(r=r.substr(1)),e(s)){case"function":if(f=s(i,u,Z,J,r,a,n,t),l)return f;break;case"string":f=K(i,H(s));break;case"object":if((f=K(i,H(s.i),s.f))&&"function"==typeof s.u)return s.u(n,f,r,a,t)}return f?function(t,n,e){if(arguments.length>3&&void 0!==arguments[3]&&arguments[3])return t instanceof $?function(r){return t.style(n,e(r))}:function(r){return t.style[n]=e(r)};if(Array.isArray(n)){var r=n.length;return function(i){var u=e(i);if(null==u)for(var o=0;o<r;o++)t[o].removeAttribute(n);else for(var a=0;a<r;a++)t[a].setAttribute(n,u)}}return function(r){var i=e(r);null==i?t.removeAttribute(n):t.setAttribute(n,i)}}(n,r,f,a):null}function tt(t,n,r,i){if(!i||"object"!==e(i))return null;var u=null,o=null;return Array.isArray(i)?o=function(t){if(!t||!t.length)return null;for(var n=0;n<t.length;n++)t[n].e&&(t[n].e=J(t[n].e));return t.sort(W)}(i):(o=i.keys,u=i.data||null),o?X(t,n,r,o,u):null}function nt(t,n,e){if(!e)return null;var r=[];for(var i in e)if(e.hasOwnProperty(i)){var u=tt(t,n,i,e[i]);u&&r.push(u)}return r.length?r:null}function et(t,n){if(!n.settings.duration||n.settings.duration<0)return null;var e,r,i,u,o,a=function(t,n){if(!n)return null;var e=[];if(Array.isArray(n))for(var r=n.length,i=0;i<r;i++){var u=n[i];if(2===u.length){var o=null;if("string"==typeof u[0])o=t.getElementById(u[0]);else if(Array.isArray(u[0])){o=[];for(var a=0;a<u[0].length;a++)if("string"==typeof u[0][a]){var l=t.getElementById(u[0][a]);l&&o.push(l)}o=o.length?1===o.length?o[0]:new $(o):null}if(o){var s=nt(t,o,u[1]);s&&(e=e.concat(s))}}}else for(var f in n)if(n.hasOwnProperty(f)){var c=t.getElementById(f);if(c){var h=nt(t,c,n[f]);h&&(e=e.concat(h))}}return e.length?e:null}(t,n.elements);return a?(e=a,r=n.settings,i=r.duration,u=e.length,o=null,function(t,n){var a=r.iterations||1/0,l=(r.alternate&&a%2==0)^r.direction>0?i:0,s=t%i,f=1+(t-s)/i;n*=r.direction,r.alternate&&f%2==0&&(n=-n);var c=!1;if(f>a)s=l,c=!0,-1===r.fill&&(s=r.direction>0?0:i);else if(n<0&&(s=i-s),s===o)return!1;o=s;for(var h=0;h<u;h++)e[h](s);return c}):null}function rt(t,n){if(Y=n,!t||!t.root||!Array.isArray(t.animations))return null;var e=function(t){for(var n=document.getElementsByTagName("svg"),e=0;e<n.length;e++)if(n[e].id===t.root&&!n[e].svgatorAnimation)return n[e].svgatorAnimation=!0,n[e];return null}(t);if(!e)return null;var r=t.animations.map((function(t){return et(e,t)})).filter((function(t){return!!t}));return r.length?{svg:e,animations:r,animationSettings:t.animationSettings,options:t.options||void 0}:null}function it(t){return+("0x"+(t.replace(/[^0-9a-fA-F]+/g,"")||27))}function ut(t,n,e){return!t||!e||n>t.length?t:t.substring(0,n)+ut(t.substring(n+1),e,e)}function ot(t){var n=arguments.length>1&&void 0!==arguments[1]?arguments[1]:27;return!t||t%n?t%n:ot(t/n,n)}function at(t,n,e){if(t&&t.length){var r=it(e),i=it(n),u=ot(r)+5,o=ut(t,ot(r,5),u);return o=o.replace(/\x7c$/g,"==").replace(/\x2f$/g,"="),o=function(t,n,e){var r=+("0x"+t.substring(0,4));t=t.substring(4);for(var i=n%r+e%27,u=[],o=0;o<t.length;o+=2)if("|"!==t[o]){var a=+("0x"+t[o]+t[o+1])-i;u.push(a)}else{var l=+("0x"+t.substring(o+1,o+1+4))-i;o+=3,u.push(l)}return String.fromCharCode.apply(String,u)}(o=(o=atob(o)).replace(/[\x41-\x5A]/g,""),i,r),o=JSON.parse(o)}}var lt=[{key:"alternate",def:!1},{key:"fill",def:1},{key:"iterations",def:0},{key:"direction",def:1},{key:"speed",def:1},{key:"fps",def:100}],st=function(){function t(n,e){var i=this,u=arguments.length>2&&void 0!==arguments[2]?arguments[2]:null;r(this,t),this._id=0,this._running=!1,this._rollingBack=!1,this._animations=n,this._settings=e,(!u||u<"2022-05-02")&&delete this._settings.speed,lt.forEach((function(t){i._settings[t.key]=i._settings[t.key]||t.def})),this.duration=e.duration,this.offset=e.offset||0,this.rollbackStartOffset=0}return u(t,[{key:"alternate",get:function(){return this._settings.alternate}},{key:"fill",get:function(){return this._settings.fill}},{key:"iterations",get:function(){return this._settings.iterations}},{key:"direction",get:function(){return this._settings.direction}},{key:"speed",get:function(){return this._settings.speed}},{key:"fps",get:function(){return this._settings.fps}},{key:"maxFiniteDuration",get:function(){return this.iterations>0?this.iterations*this.duration:this.duration}},{key:"_apply",value:function(t){for(var n=arguments.length>1&&void 0!==arguments[1]?arguments[1]:{},e=this._animations,r=e.length,i=0,u=0;u<r;u++)n[u]?i++:(n[u]=e[u](t,1),n[u]&&i++);return i}},{key:"_rollback",value:function(t){var n=this,e=1/0,r=null;this.rollbackStartOffset=t,this._rollingBack=!0,this._running=!0;this._id=window.requestAnimationFrame((function i(u){if(n._rollingBack){null==r&&(r=u);var o=Math.round(t-(u-r)*n.speed);if(o>n.duration&&e!==1/0){var a=!!n.alternate&&o/n.duration%2>1,l=o%n.duration;o=(l+=a?n.duration:0)||n.duration}var s=(n.fps?1e3/n.fps:0)*n.speed,f=Math.max(0,o);f<=e-s&&(n.offset=f,e=f,n._apply(f));var c=n.iterations>0&&-1===n.fill&&o>=n.maxFiniteDuration;(o<=0||n.offset<o||c)&&n.stop(),n._id=window.requestAnimationFrame(i)}}))}},{key:"_start",value:function(){var t=this,n=arguments.length>0&&void 0!==arguments[0]?arguments[0]:0,e=-1/0,r=null,i={};this._running=!0;var u=function u(o){null==r&&(r=o);var a=Math.round((o-r)*t.speed+n),l=(t.fps?1e3/t.fps:0)*t.speed;if(a>=e+l&&!t._rollingBack&&(t.offset=a,e=a,t._apply(a,i)===t._animations.length))return void t.pause(!0);t._id=window.requestAnimationFrame(u)};this._id=window.requestAnimationFrame(u)}},{key:"_pause",value:function(){this._id&&window.cancelAnimationFrame(this._id),this._running=!1}},{key:"play",value:function(){if(!this._running)return this._rollingBack?this._rollback(this.offset):this._start(this.offset)}},{key:"stop",value:function(){this._pause(),this.offset=0,this.rollbackStartOffset=0,this._rollingBack=!1,this._apply(0)}},{key:"reachedToEnd",value:function(){return this.iterations>0&&this.offset>=this.iterations*this.duration}},{key:"restart",value:function(){var t=arguments.length>0&&void 0!==arguments[0]&&arguments[0];this.stop(t),this.play(t)}},{key:"pause",value:function(){this._pause()}},{key:"reverse",value:function(){this.direction=-this.direction}}],[{key:"build",value:function(t,n){delete t.animationSettings,t.options=at(t.options,t.root,"5c7f360c"),t.animations.map((function(n){n.settings=at(n.s,t.root,"5c7f360c"),delete n.s,t.animationSettings||(t.animationSettings=n.settings)}));var e=t.version;if(!(t=rt(t,n)))return null;var r=t.options||{},i=new this(t.animations,t.animationSettings,e);return{el:t.svg,options:r,player:i}}},{key:"push",value:function(t){return this.build(t)}},{key:"init",value:function(){var t=this,n=window.__SVGATOR_PLAYER__&&window.__SVGATOR_PLAYER__["5c7f360c"];Array.isArray(n)&&n.splice(0).forEach((function(n){return t.build(n)}))}}]),t}();function ft(t){return d(t)+""}function ct(t){var n=arguments.length>1&&void 0!==arguments[1]?arguments[1]:" ";return t&&t.length?t.map(ft).join(n):""}function ht(t){if(!t)return"transparent";if(null==t.a||t.a>=1){var n=function(t){return 1===(t=parseInt(t).toString(16)).length?"0"+t:t},e=function(t){return t.charAt(0)===t.charAt(1)},r=n(t.r),i=n(t.g),u=n(t.b);return e(r)&&e(i)&&e(u)&&(r=r.charAt(0),i=i.charAt(0),u=u.charAt(0)),"#"+r+i+u}return"rgba("+t.r+","+t.g+","+t.b+","+t.a+")"}function vt(t){return t?"url(#"+t+")":"none"}!function(){for(var t=0,n=["ms","moz","webkit","o"],e=0;e<n.length&&!window.requestAnimationFrame;++e)window.requestAnimationFrame=window[n[e]+"RequestAnimationFrame"],window.cancelAnimationFrame=window[n[e]+"CancelAnimationFrame"]||window[n[e]+"CancelRequestAnimationFrame"];window.requestAnimationFrame||(window.requestAnimationFrame=function(n){var e=Date.now(),r=Math.max(0,16-(e-t)),i=window.setTimeout((function(){n(e+r)}),r);return t=e+r,i},window.cancelAnimationFrame=window.clearTimeout)}();var yt={f:null,i:function(t,n,e){return 0===t?n:1===t?e:{x:B(t,n.x,e.x),y:B(t,n.y,e.y)}},u:function(t,n){return function(e){var r=n(e);t.setAttribute("rx",ft(r.x)),t.setAttribute("ry",ft(r.y))}}},gt={f:null,i:function(t,n,e){return 0===t?n:1===t?e:{width:B(t,n.width,e.width),height:B(t,n.height,e.height)}},u:function(t,n){return function(e){var r=n(e);t.setAttribute("width",ft(r.width)),t.setAttribute("height",ft(r.height))}}};Object.freeze({M:2,L:2,Z:0,H:1,V:1,C:6,Q:4,T:2,S:4,A:7});var dt={},pt=null;function mt(t){var n=function(){if(pt)return pt;if("object"!==("undefined"==typeof document?"undefined":e(document))||!document.createElementNS)return{};var t=document.createElementNS("http://www.w3.org/2000/svg","svg");return t&&t.style?(t.style.position="absolute",t.style.opacity="0.01",t.style.zIndex="-9999",t.style.left="-9999px",t.style.width="1px",t.style.height="1px",pt={svg:t}):{}}().svg;if(!n)return function(t){return null};var r=document.createElementNS(n.namespaceURI,"path");r.setAttributeNS(null,"d",t),r.setAttributeNS(null,"fill","none"),r.setAttributeNS(null,"stroke","none"),n.appendChild(r);var i=r.getTotalLength();return function(t){var n=r.getPointAtLength(i*t);return{x:n.x,y:n.y}}}function bt(t){return dt[t]?dt[t]:dt[t]=mt(t)}function wt(t,n,e,r){if(!t||!r)return!1;var i=["M",t.x,t.y];if(n&&e&&(i.push("C"),i.push(n.x),i.push(n.y),i.push(e.x),i.push(e.y)),n?!e:e){var u=n||e;i.push("Q"),i.push(u.x),i.push(u.y)}return n||e||i.push("L"),i.push(r.x),i.push(r.y),i.join(" ")}function xt(t,n,e,r){var i=arguments.length>4&&void 0!==arguments[4]?arguments[4]:1,u=wt(t,n,e,r),o=bt(u);try{return o(i)}catch(t){return null}}function At(t,n,e){return t+(n-t)*e}function kt(t,n,e){var r=arguments.length>3&&void 0!==arguments[3]&&arguments[3],i={x:At(t.x,n.x,e),y:At(t.y,n.y,e)};return r&&(i.a=_t(t,n)),i}function _t(t,n){return Math.atan2(n.y-t.y,n.x-t.x)}function St(t,n,e,r){var i=1-r;return i*i*t+2*i*r*n+r*r*e}function Ot(t,n,e,r){return 2*(1-r)*(n-t)+2*r*(e-n)}function jt(t,n,e,r){var i=arguments.length>4&&void 0!==arguments[4]&&arguments[4],u=xt(t,n,null,e,r);return u||(u={x:St(t.x,n.x,e.x,r),y:St(t.y,n.y,e.y,r)}),i&&(u.a=Mt(t,n,e,r)),u}function Mt(t,n,e,r){return Math.atan2(Ot(t.y,n.y,e.y,r),Ot(t.x,n.x,e.x,r))}function Pt(t,n,e,r,i){var u=i*i;return i*u*(r-t+3*(n-e))+3*u*(t+e-2*n)+3*i*(n-t)+t}function Et(t,n,e,r,i){var u=1-i;return 3*(u*u*(n-t)+2*u*i*(e-n)+i*i*(r-e))}function It(t,n,e,r,i){var u=arguments.length>5&&void 0!==arguments[5]&&arguments[5],o=xt(t,n,e,r,i);return o||(o={x:Pt(t.x,n.x,e.x,r.x,i),y:Pt(t.y,n.y,e.y,r.y,i)}),u&&(o.a=Rt(t,n,e,r,i)),o}function Rt(t,n,e,r,i){return Math.atan2(Et(t.y,n.y,e.y,r.y,i),Et(t.x,n.x,e.x,r.x,i))}function Ft(t,n,e){var r=arguments.length>3&&void 0!==arguments[3]&&arguments[3];if(Tt(n)){if(qt(e))return jt(n,e.start,e,t,r)}else if(Tt(e)){if(Bt(n))return jt(n,n.end,e,t,r)}else{if(Bt(n))return qt(e)?It(n,n.end,e.start,e,t,r):jt(n,n.end,e,t,r);if(qt(e))return jt(n,e.start,e,t,r)}return kt(n,e,t,r)}function Nt(t,n,e){var r=Ft(t,n,e,!0);return r.a=function(t){return arguments.length>1&&void 0!==arguments[1]&&arguments[1]?t+Math.PI:t}(r.a)/m,r}function Tt(t){return!t.type||"corner"===t.type}function qt(t){return null!=t.start&&!Tt(t)}function Bt(t){return null!=t.end&&!Tt(t)}var Lt=new N;var Ct={f:ft,i:q},Dt={f:ft,i:L};function zt(t,n,e){return t.map((function(t){return function(t,n,e){var r=t.v;if(!r||"g"!==r.t||r.s||!r.v||!r.r)return t;var i=e.getElementById(r.r),u=i&&i.querySelectorAll("stop")||[];return r.s=r.v.map((function(t,n){var e=u[n]&&u[n].getAttribute("offset");return{c:t,o:e=d(parseInt(e)/100)}})),delete r.v,t}(t,0,e)}))}var Vt={gt:"gradientTransform",c:{x:"cx",y:"cy"},rd:"r",f:{x:"x1",y:"y1"},to:{x:"x2",y:"y2"}};function Gt(t,n,r,i,u,o,a,l){return zt(t,0,l),n=function(t,n,e){for(var r,i,u,o=t.length-1,a={},l=0;l<=o;l++)(r=t[l]).e&&(r.e=n(r.e)),r.v&&"g"===(i=r.v).t&&i.r&&(u=e.getElementById(i.r))&&(a[i.r]={e:u,s:u.querySelectorAll("stop")});return a}(t,i,l),function(i){var u=r(i,t,Yt);if(!u)return"none";if("c"===u.t)return ht(u.v);if("g"===u.t){if(!n[u.r])return vt(u.r);var o=n[u.r];return function(t,n){for(var e=t.s,r=e.length;r<n.length;r++){var i=e[e.length-1].cloneNode();i.id=Qt(i.id),t.e.appendChild(i),e=t.s=t.e.querySelectorAll("stop")}for(var u=0,o=e.length,a=n.length-1;u<o;u++)e[u].setAttribute("stop-color",ht(n[Math.min(u,a)].c)),e[u].setAttribute("offset",n[Math.min(u,a)].o)}(o,u.s),Object.keys(Vt).forEach((function(t){if(void 0!==u[t])if("object"!==e(Vt[t])){var n,r="gt"===t?(n=u[t],Array.isArray(n)?"matrix("+n.join(" ")+")":""):u[t],i=Vt[t];o.e.setAttribute(i,r)}else Object.keys(Vt[t]).forEach((function(n){if(void 0!==u[t][n]){var e=u[t][n],r=Vt[t][n];o.e.setAttribute(r,e)}}))})),vt(u.r)}return"none"}}function Yt(t,e,r){if(0===t)return e;if(1===t)return r;if(e&&r){var i=e.t;if(i===r.t)switch(e.t){case"c":return{t:i,v:z(t,e.v,r.v)};case"g":if(e.r===r.r){var u={t:i,s:$t(t,e.s,r.s),r:e.r};return e.gt&&r.gt&&(u.gt=function(t,n,e){var r=n.length;if(r!==e.length)return T(t,n,e);for(var i=new Array(r),u=0;u<r;u++)i[u]=q(t,n[u],e[u]);return i}(t,e.gt,r.gt)),e.c?(u.c=C(t,e.c,r.c),u.rd=B(t,e.rd,r.rd)):e.f&&(u.f=C(t,e.f,r.f),u.to=C(t,e.to,r.to)),u}}if("c"===e.t&&"g"===r.t||"c"===r.t&&"g"===e.t){var o="c"===e.t?e:r,a="g"===e.t?n({},e):n({},r),l=a.s.map((function(t){return{c:o.v,o:t.o}}));return a.s="c"===e.t?$t(t,l,a.s):$t(t,a.s,l),a}}return T(t,e,r)}function $t(t,n,e){if(n.length===e.length)return n.map((function(n,r){return Ut(t,n,e[r])}));for(var r=Math.max(n.length,e.length),i=[],u=0;u<r;u++){var o=Ut(t,n[Math.min(u,n.length-1)],e[Math.min(u,e.length-1)]);i.push(o)}return i}function Ut(t,n,e){return{o:L(t,n.o,e.o||0),c:z(t,n.c,e.c||{})}}function Qt(t){return t.replace(/-fill-([0-9]+)$/,(function(t,n){return"-fill-"+(+n+1)}))}var Ht={fill:Gt,"fill-opacity":Dt,stroke:Gt,"stroke-opacity":Dt,"stroke-width":Ct,"stroke-dashoffset":{f:ft,i:q},"stroke-dasharray":{f:function(t){var n=arguments.length>1&&void 0!==arguments[1]?arguments[1]:" ";return t&&t.length>0&&(t=t.map((function(t){return d(t,4)}))),ct(t,n)},i:function(t,n,e){var r,i,u,o=n.length,a=e.length;if(o!==a)if(0===o)n=V(o=a,0);else if(0===a)a=o,e=V(o,0);else{var l=(u=(r=o)*(i=a)/function(t,n){for(var e;n;)e=n,n=t%n,t=e;return t||1}(r,i))<0?-u:u;n=G(n,Math.floor(l/o)),e=G(e,Math.floor(l/a)),o=a=l}for(var s=[],f=0;f<o;f++)s.push(d(B(t,n[f],e[f])));return s}},opacity:Dt,transform:function(t,n,r,i){if(!(t=function(t,n){if(!t||"object"!==e(t))return null;var r=!1;for(var i in t)t.hasOwnProperty(i)&&(t[i]&&t[i].length?(t[i].forEach((function(t){t.e&&(t.e=n(t.e))})),r=!0):delete t[i]);return r?t:null}(t,i)))return null;var u=function(e,i,u){var o=arguments.length>3&&void 0!==arguments[3]?arguments[3]:null;return t[e]?r(i,t[e],u):n&&n[e]?n[e]:o};return n&&n.a&&t.o?function(n){var e=r(n,t.o,Nt);return Lt.recomposeSelf(e,u("r",n,q,0)+e.a,u("k",n,C),u("s",n,C),u("t",n,C)).toString()}:function(t){return Lt.recomposeSelf(u("o",t,Ft,null),u("r",t,q,0),u("k",t,C),u("s",t,C),u("t",t,C)).toString()}},r:Ct,"#size":gt,"#radius":yt,_:function(t,n){if(Array.isArray(t))for(var e=0;e<t.length;e++)this[t[e]]=n;else this[t]=n}},Jt=function(t){!function(t,n){if("function"!=typeof n&&null!==n)throw new TypeError("Super expression must either be null or a function");t.prototype=Object.create(n&&n.prototype,{constructor:{value:t,writable:!0,configurable:!0}}),n&&l(t,n)}(o,t);var n,e,i=(n=o,e=s(),function(){var t,r=a(n);if(e){var i=a(this).constructor;t=Reflect.construct(r,arguments,i)}else t=r.apply(this,arguments);return c(this,t)});function o(){return r(this,o),i.apply(this,arguments)}return u(o,null,[{key:"build",value:function(t){var n=h(a(o),"build",this).call(this,t,Ht);if(!n)return null;n.el,n.options,function(t,n,e){t.play()}(n.player)}}]),o}(st);return Jt.init(),Jt}));
(function(s,i,o,w,a,b){w[o]=w[o]||{};w[o][s]=w[o][s]||[];w[o][s].push(i);})('5c7f360c',{"root":"eMdvjktixC71","version":"2022-05-04","animations":[{"elements":{"eMdvjktixC78":{"transform":{"data":{"t":{"x":-171.754005,"y":-31.73435}},"keys":{"o":[{"t":280,"v":{"x":141.812,"y":40.8547,"type":"cusp"}},{"t":860,"v":{"x":156.104,"y":22.9285,"type":"cusp"}},{"t":1210,"v":{"x":142.291,"y":22.9285,"type":"cusp"}},{"t":1270,"v":{"x":141.333,"y":20.7271,"type":"cusp"}},{"t":1710,"v":{"x":159.088,"y":20.7271,"type":"cusp"}},{"t":1760,"v":{"x":159.088,"y":22.614,"type":"cusp"}},{"t":2340,"v":{"x":144.796,"y":40.5401,"type":"cusp"}},{"t":2730,"v":{"x":160.361,"y":40.5401,"type":"cusp"}},{"t":2790,"v":{"x":159.403,"y":42.7416,"type":"cusp"}},{"t":3000,"v":{"x":151.00729545454544,"y":42.7416,"a":180}}]}}}},"s":"MDDA1ZGIwUjU3OTlhYWFE3OTZhOTllYTRhMzUQ3NmY2ODY1NjU2NTYxXNTdZOTk5ZWE3OWFLOHThhOTllYTRhMzU3NmCZDNjY2MTU3OWVhOTlGhYTc5NmE5OWVOYTRhPM2E4NTc2ZjY2NjE1NMzliOWVhMWExNTc2ZjAY2NjFSNTc5NmExYTkK5YWE3YTNKOTZhOTlhRNTc2ZjliOTZhMWE4OUWE2MTU3YThhNTlhUTRlhOTk1NzZmNjY2MTUW3OWJhNWE4NTdENmY2RNlY2NTY1YjI/"}],"options":"MGDAxMDg4MmY4MDgxNmLU3ZjgxMmY0NzJmNzkK3YzZlNzEyZjhh"},'__SVGATOR_PLAYER__',window)
]]></script>
</svg>
