<svg width="200" height="91" viewBox="0 0 200 91" fill="none" xmlns="http://www.w3.org/2000/svg">
<path  fill-rule="evenodd" clip-rule="evenodd" d="M85.0374 20.8037C75.688 26.2428 71.8183 28.4898 68.7269 30.2936C68.6378 30.2057 68.5482 30.1182 68.4579 30.0312C65.3169 31.8944 62.9533 33.3287 56.3293 37.3383C56.2627 37.2675 56.1951 37.1976 56.1276 37.1287C55.1343 37.7553 54.1409 38.3818 53.1473 39.0081C53.1331 39.3836 53.0838 39.7585 52.9989 40.1249C54.3174 39.4307 55.6344 38.7337 56.9523 38.0385C56.8891 37.963 56.8254 37.8884 56.7613 37.8147C63.6384 34.0229 65.9954 32.7265 69.2946 30.8667C69.2075 30.7766 69.1197 30.6868 69.0316 30.5977C72.1252 28.8259 76.0259 26.5811 85.3333 21.2355C85.2363 21.0923 85.1378 20.9485 85.0374 20.8037ZM29.8207 68.6676C27.5934 72.6153 26.0634 75.279 19.8145 86.2233C19.5695 86.1098 19.327 85.9951 19.0868 85.8787C25.4047 75.0305 26.9714 72.3239 29.2457 68.4634C29.0212 68.3815 28.798 68.2978 28.5767 68.2121C31.0562 64.2015 33.5868 60.2193 36.0973 56.228H37.1755C34.9518 60.4504 32.7451 64.6852 30.4932 68.8924C30.4288 68.8715 29.8207 68.6676 29.8207 68.6676ZM17.2116 60.9692C20.3526 59.106 22.7162 57.6717 29.3401 53.6621C29.4071 53.7329 29.4743 53.8031 29.5419 53.8717C30.4013 53.3298 31.4278 52.6821 32.2873 52.1403V51.0778L28.7172 52.9619C28.7803 53.0374 28.8441 53.112 28.9082 53.1857C22.031 56.9772 19.674 58.2739 16.3749 60.1337C16.462 60.2235 16.5501 60.3132 16.6379 60.4027C13.5439 62.1745 9.64359 64.419 0.336182 69.7649C0.433114 69.9081 0.531625 70.0519 0.632031 70.1967C9.98143 64.7576 13.8511 62.5106 16.9426 60.7068C17.0319 60.7947 17.1213 60.8819 17.2116 60.9692ZM30.0003 54.3202C23.7708 58.5961 21.4002 60.219 18.5693 62.2093C18.7107 62.332 18.8537 62.4534 18.9977 62.5738C16.0137 64.7234 12.5566 67.2283 3.42444 73.8308C3.54158 73.969 3.66062 74.1071 3.78091 74.2456C12.9393 67.5432 16.3591 65.0455 19.3397 62.8558C19.4846 62.9737 19.6305 63.0907 19.7776 63.2064C22.4295 61.2075 24.7698 59.4009 30.6347 54.8845C30.6792 54.9218 30.724 54.9594 30.7689 54.9964L32.2873 53.7996V52.5803L29.8722 54.1985C29.9145 54.2393 29.9574 54.2801 30.0003 54.3202ZM31.1976 55.3366C25.6539 60.0164 23.3398 61.9637 20.9121 64.0611C21.0933 64.192 21.2764 64.321 21.4608 64.4487C18.5989 66.9988 15.6256 69.6691 6.89033 77.4924C7.03778 77.6321 7.18681 77.7719 7.33773 77.9113C16.0796 69.9789 19.0097 67.3273 21.8646 64.7234C22.0494 64.8473 22.2356 64.9694 22.4232 65.0898C24.6694 62.9727 26.9013 60.8187 32.0002 55.9122L32.0767 55.9634L32.2873 55.7583V54.3101L31.1241 55.28L31.1976 55.3366ZM32.4356 56.228C27.596 61.2129 25.4069 63.4599 23.3278 65.6506C23.5526 65.7849 23.779 65.9171 24.0079 66.047C21.2938 69.0233 18.814 71.7703 10.6944 80.7336C10.8728 80.8701 11.0534 81.0061 11.2356 81.1414C19.3378 72.0669 21.7725 69.3492 24.4717 66.3053C24.6997 66.4298 24.9295 66.5522 25.1616 66.6726C28.098 63.2165 30.9864 59.7136 33.8884 56.228H32.4356ZM25.9273 67.057C26.153 67.1667 26.381 67.2745 26.6109 67.3801C24.0875 70.7989 22.0828 73.5507 14.7797 83.5316C14.9894 83.6599 15.2013 83.7873 15.4153 83.9137C22.6745 73.827 24.6365 71.1131 27.1318 67.6146C27.3601 67.7148 27.59 67.8132 27.8217 67.9093C30.4582 64.0349 33.0466 60.1239 35.6515 56.228H34.4138C31.5806 59.8327 28.7263 63.4261 25.9273 67.057ZM31.245 69.1263C31.4679 69.193 31.6921 69.2578 31.9178 69.3207C29.964 73.6026 28.7895 76.2339 23.5889 87.7954C23.8377 87.888 24.0887 87.9794 24.3416 88.0691C29.4579 76.4309 30.6059 73.8397 32.496 69.4756C32.7223 69.5335 32.9478 69.5882 33.1723 69.6391C34.9843 65.1777 36.7534 60.6992 38.5399 56.228H37.5718C35.4598 60.5253 33.3289 64.8157 31.245 69.1263ZM33.9234 69.7981C34.1425 69.8411 34.3607 69.8809 34.5783 69.9176C33.0049 74.5933 32.1799 77.1245 28.1741 89.277C28.2199 89.2897 28.2657 89.3023 28.3114 89.3147C28.5441 89.3785 28.7765 89.4401 29.0092 89.4996C32.9172 77.2651 33.7201 74.7814 35.2097 70.0153C35.4298 70.0465 35.6486 70.0744 35.8662 70.0993C37.1951 65.4818 38.4862 60.8519 39.7937 56.228H38.9014C37.2422 60.7514 35.5609 65.2665 33.9234 69.7981ZM36.6151 70.1683C36.8248 70.1847 37.035 70.1986 37.246 70.2109C37.2456 70.2128 37.245 70.2144 37.2447 70.2163C36.1071 75.2774 35.5984 77.6625 32.8515 90.2927C33.1581 90.3408 33.4643 90.3857 33.7703 90.4268C36.4001 77.7292 36.8926 75.4003 37.9229 70.2444C38.131 70.2527 38.3394 70.2593 38.5487 70.264C39.3744 65.5886 40.1672 60.9066 40.9752 56.228H40.1321C38.9579 60.874 37.7685 65.5172 36.6151 70.1683ZM39.2822 70.2732C39.4811 70.2738 39.6797 70.2723 39.8786 70.2672C39.2424 75.6536 39.0075 77.8781 37.586 90.7584C37.9172 90.7713 38.2478 90.7805 38.5778 90.7856C39.8638 77.8762 40.0908 75.7035 40.5925 70.2369C40.7905 70.2252 40.9878 70.2103 41.1845 70.1926C41.5088 65.539 41.8043 60.8826 42.1144 56.228H41.2991C40.6263 60.9094 39.9383 65.5896 39.2822 70.2732ZM41.9016 70.1155C42.0894 70.0921 42.2763 70.0661 42.4626 70.0377C42.3827 75.7051 42.3821 77.7447 42.3092 90.6705C42.6603 90.6433 43.0108 90.6117 43.3596 90.576C43.2867 77.6391 43.2867 75.6615 43.2049 69.9106C43.3893 69.8758 43.5731 69.8385 43.7562 69.7987C43.5949 65.275 43.4102 60.7514 43.2378 56.228H42.4314C42.2539 60.857 42.0648 65.4862 41.9016 70.1155ZM44.4461 69.6369C44.6195 69.5932 44.7918 69.5474 44.9636 69.4997C45.4941 75.425 45.6857 77.2452 46.9518 90.042C47.3178 89.9709 47.6821 89.895 48.0449 89.8141C46.626 77.0318 46.4425 75.2786 45.7189 69.2746C45.8875 69.2208 46.0554 69.1655 46.2228 69.108C45.6137 64.8135 44.9882 60.5209 44.37 56.228H43.5548C43.8516 60.6973 44.1386 65.1682 44.4461 69.6369ZM46.8761 68.8715C47.033 68.8121 47.1893 68.7511 47.3449 68.6879C48.5432 74.8263 48.8813 76.4135 51.4502 88.8999C51.825 88.782 52.1975 88.6587 52.5676 88.5307C49.8446 76.0895 49.5232 74.5689 48.0992 68.3667C48.2508 68.2987 48.4017 68.2292 48.552 68.1584C47.5533 64.18 46.5417 60.2048 45.537 56.228H44.694C45.4221 60.4422 46.141 64.6586 46.8761 68.8715ZM49.1626 67.8584C49.3028 67.7869 49.4421 67.7142 49.5804 67.6399C51.4975 73.9212 51.9412 75.2812 55.7474 87.2798C56.125 87.1132 56.4995 86.9409 56.8711 86.7636C52.9152 74.8437 52.4962 73.5457 50.3217 67.2258C50.4562 67.1474 50.5898 67.0681 50.7221 66.9871C49.4083 63.3992 48.0834 59.8153 46.7678 56.228H45.8755C46.9714 60.1046 48.061 63.9831 49.1626 67.8584ZM51.2854 66.6331C51.4088 66.5531 51.531 66.4722 51.6526 66.3903C54.3294 72.7253 54.8435 73.8757 59.7949 85.2219C60.1687 85.0053 60.5391 84.7834 60.905 84.5558C55.8159 73.3219 55.3306 72.2252 52.3693 65.8877L52.3583 65.8956C52.4792 65.8074 52.5995 65.7179 52.7182 65.6282C51.6172 63.3831 50.1853 60.477 48.097 56.2274C47.775 56.2309 47.4516 56.228 47.1293 56.228C48.5151 59.6962 49.8961 63.1662 51.2854 66.6331ZM48.4854 56.2122C50.6147 60.2554 52.0864 63.0571 53.2319 65.2279C53.3386 65.1426 53.4444 65.0563 53.5492 64.9694C57.0082 71.2513 57.5689 72.2189 63.5503 82.7678C63.9144 82.501 64.2737 82.2285 64.6276 81.9503C58.5266 71.5456 57.9964 70.6219 54.2312 64.3814C54.332 64.2913 54.4317 64.2006 54.5306 64.1089C53.2862 62.1281 51.6984 59.6086 49.4752 56.0738C49.1529 56.143 48.8226 56.1898 48.4854 56.2122ZM49.8532 55.9814C52.0984 59.3396 53.7144 61.7607 54.9922 63.6695C55.0929 63.5708 55.1923 63.4716 55.2912 63.3717C59.5505 69.4813 60.1419 70.2934 67.0241 79.9161C67.3389 79.6272 67.6493 79.3335 67.9543 79.0354C60.9852 69.5702 60.4204 68.789 55.8702 62.7628C55.9647 62.6601 56.0578 62.5564 56.1497 62.4527C54.7951 60.7277 53.0961 58.5695 50.7985 55.6464C50.4941 55.7801 50.1784 55.8923 49.8532 55.9814ZM51.1506 55.4801C53.4589 58.254 55.1772 60.3224 56.557 61.9792C56.6457 61.8733 56.7335 61.7664 56.8197 61.6593C61.858 67.4806 62.4743 68.165 70.1026 76.7654C70.3826 76.4454 70.657 76.1211 70.9257 75.793C63.2409 67.3652 62.646 66.7029 57.3249 61.0084C57.4066 60.8987 57.4875 60.7887 57.5667 60.6777C56.1269 59.1948 54.3484 57.3661 52.0116 54.9607C51.7385 55.1535 51.4508 55.3274 51.1506 55.4801ZM52.3235 54.7268C54.6651 57.0069 56.4578 58.7548 57.9169 60.1751C57.993 60.0625 58.0675 59.9497 58.141 59.8362C63.9261 65.2554 64.5686 65.8352 72.7782 73.3389C73.0191 72.9915 73.254 72.6403 73.4829 72.2856C65.2499 64.9652 64.6226 64.401 58.5673 59.149C58.6358 59.0336 58.7031 58.9176 58.7691 58.8012C57.2614 57.5434 55.4235 56.0124 53.0652 54.0452C52.8347 54.2899 52.5869 54.5178 52.3235 54.7268ZM53.3244 53.7538C55.6859 55.6148 57.5348 57.0733 59.0583 58.2733C59.1205 58.1557 59.1811 58.0372 59.2408 57.9186C65.7286 62.8311 66.4034 63.3246 75.0174 69.6814C75.2157 69.3106 75.4076 68.9367 75.593 68.5595C66.9903 62.3917 66.3238 61.91 59.5824 57.2017C59.6364 57.0812 59.6894 56.9608 59.7409 56.8397C58.1764 55.7915 56.2905 54.5289 53.9158 52.9375C53.7384 53.2243 53.5407 53.4971 53.3244 53.7538ZM54.1122 52.6002C56.4897 54.0999 58.3858 55.2967 59.9635 56.2916C60.0109 56.1695 60.0567 56.0472 60.1012 55.9245C67.2391 60.2358 67.9568 60.6559 76.79 65.8428C76.9421 65.4533 77.0877 65.061 77.226 64.6665C68.4411 59.6684 67.7238 59.2596 60.3503 55.1848C60.3891 55.0612 60.4261 54.9373 60.4617 54.8128C58.8477 53.9611 56.9188 52.9445 54.528 51.6825C54.4112 51.9999 54.272 52.3066 54.1122 52.6002ZM54.6524 51.3127C57.0476 52.4928 58.986 53.449 60.6124 54.2507C60.6433 54.1258 60.673 54.0006 60.7008 53.8755C68.4333 57.5029 69.2081 57.856 78.0697 61.879C78.172 61.4756 78.2654 61.0694 78.35 60.661C69.5819 56.8242 68.797 56.4831 60.8498 53.1231C60.8713 52.9973 60.8915 52.8715 60.9098 52.746C59.2506 52.0818 57.2832 51.2953 54.875 50.3311C54.8242 50.6669 54.7494 50.9947 54.6524 51.3127ZM54.9227 49.9439C57.3353 50.8325 59.3118 51.5618 60.9821 52.1776C60.9957 52.0521 61.0077 51.9263 61.0178 51.8008C69.2734 54.6639 70.1364 54.9556 78.7936 57.8377C78.8382 57.4252 78.8742 57.0111 78.902 56.5954C70.3921 53.8916 69.5039 53.6153 61.0591 51.0475C61.0626 50.9226 61.0645 50.7974 61.0645 50.6722C59.3664 50.1917 57.3665 49.6262 54.9458 48.9402C54.9511 49.0531 54.954 49.1669 54.954 49.281C54.954 49.5045 54.9432 49.7258 54.9227 49.9439ZM54.9161 48.552C57.3419 49.1665 59.351 49.6764 61.0591 50.1099C61.0566 49.9859 61.0534 49.863 61.0493 49.7403C69.7385 51.7663 70.7318 51.993 78.9629 53.8043C78.9537 53.3915 78.9364 52.978 78.9111 52.5642C70.8758 50.9128 69.8351 50.7083 61.0143 49.0088C61.0067 48.8877 60.9979 48.7673 60.989 48.6472C59.2449 48.3459 57.1992 47.9931 54.7412 47.5679C54.8223 47.8875 54.8813 48.2163 54.9161 48.552ZM54.6354 47.194C57.1149 47.5515 59.1795 47.8502 60.9414 48.105C60.9294 47.9858 60.9167 47.8676 60.9031 47.75C69.8342 48.865 71.0189 49.0104 78.6329 49.8655C78.5742 49.4599 78.5079 49.055 78.4343 48.6503C71.0514 47.9261 69.7991 47.8167 60.8116 47.047C60.7945 46.9303 60.7765 46.8143 60.7579 46.6992C58.5951 46.5564 56.4323 46.4132 54.2694 46.269C54.4134 46.5681 54.5359 46.8775 54.6354 47.194ZM60.6667 46.1786C60.6452 46.0642 60.6231 45.9507 60.6 45.8381C69.5702 46.012 70.9892 46.0386 77.8632 46.0879C77.7596 45.6956 77.6491 45.3045 77.5313 44.9147C70.9039 44.9631 69.4073 44.9916 60.451 45.1654C60.4242 45.0538 60.3967 44.9432 60.3683 44.8332C58.0968 44.9214 55.8254 45.0093 53.5537 45.0962C53.7519 45.3586 53.9316 45.6352 54.0917 45.9244C56.2832 46.0085 58.4751 46.0936 60.6667 46.1786ZM60.2331 44.3356C60.2022 44.2266 60.1703 44.1188 60.1378 44.0113C68.9618 43.2554 70.6314 43.1125 76.7107 42.5189C76.567 42.1446 76.4167 41.7722 76.2598 41.402C70.4256 42.0611 68.677 42.2799 59.9304 43.3721C59.894 43.2665 59.8571 43.1615 59.8189 43.0572C57.4234 43.4037 55.0275 43.7502 52.6314 44.0947C52.8745 44.3119 53.1025 44.5458 53.3131 44.7949C55.6195 44.6407 57.9263 44.488 60.2331 44.3356ZM59.6399 42.5859C59.5991 42.4832 59.5578 42.3814 59.5155 42.2802C68.0307 40.6402 69.9409 40.2732 75.2293 39.1914C75.0499 38.8392 74.8639 38.4893 74.672 38.1422C69.6144 39.2616 67.6332 39.725 59.2512 41.6793C59.2051 41.5803 59.1587 41.482 59.1113 41.3843C56.5901 42.0242 54.0689 42.663 51.5474 43.301C51.8243 43.465 52.0889 43.6481 52.3393 43.8482C54.7727 43.4265 57.2061 43.006 59.6399 42.5859ZM58.889 40.9433C58.8392 40.8476 58.7886 40.7527 58.7372 40.6588C66.8059 38.2057 68.9233 37.564 73.4674 36.1285C73.2565 35.8013 73.0396 35.4773 72.8167 35.1561C68.48 36.6093 66.3077 37.3652 58.4183 40.1015C58.3633 40.0102 58.3081 39.9197 58.2516 39.8293C56.2201 40.5785 54.188 41.3271 52.1562 42.075C51.9083 42.4465 51.6201 42.7882 51.2974 43.0942C53.8277 42.3763 56.3584 41.6597 58.889 40.9433ZM57.9889 39.4228C57.9305 39.3349 57.8711 39.248 57.8111 39.162C65.3229 35.9866 67.594 35.0287 71.4697 33.3445C71.2313 33.0451 70.9873 32.7489 70.7382 32.4565C67.0421 34.1471 64.7378 35.2307 57.4423 38.6537C57.3792 38.5705 57.3157 38.488 57.2513 38.4065C55.7945 39.1247 54.338 39.8432 52.8805 40.5602C52.7605 40.9437 52.6023 41.3104 52.411 41.6562C54.2704 40.9114 56.1295 40.1669 57.9889 39.4228ZM53.1482 38.5769C54.0314 37.9851 54.9142 37.3933 55.7973 36.8019C55.7547 36.7611 55.7121 36.7203 55.6691 36.6802C61.8987 32.404 64.2693 30.7814 67.1002 28.7911C66.9587 28.6684 66.8157 28.547 66.6717 28.4266C69.6558 26.277 73.1132 23.7721 82.245 17.1696C82.1279 17.0314 82.0092 16.8933 81.8885 16.7548C72.7302 23.4572 69.3104 25.9549 66.3298 28.1443C66.1849 28.0267 66.039 27.9097 65.8919 27.794C63.2396 29.7925 60.8997 31.5995 55.0348 36.1159C54.9903 36.0783 54.9454 36.041 54.9006 36.004C54.271 36.5003 53.6414 36.9963 53.0118 37.4926C53.0892 37.8432 53.1356 38.2057 53.1482 38.5769ZM52.907 37.0867C53.4532 36.6312 53.9992 36.1759 54.5454 35.7204L54.4718 35.6638C60.0156 30.984 62.3297 29.0367 64.7574 26.9393C64.5762 26.8084 64.393 26.6794 64.2086 26.552C67.0705 24.0012 70.0438 21.3313 78.7791 13.508C78.6317 13.3683 78.4826 13.2285 78.3317 13.0891C69.5898 21.0215 66.6597 23.6731 63.8048 26.277C63.6201 26.1534 63.4338 26.031 63.2463 25.9106C61.0001 28.0277 58.7681 30.1817 53.6692 35.0882L53.5928 35.037C53.2319 35.3885 52.8713 35.7397 52.5108 36.0909C52.6715 36.4077 52.8047 36.7405 52.907 37.0867ZM62.3417 25.3498C62.1172 25.2155 61.8902 25.0833 61.6616 24.9534C64.3757 21.9771 66.8555 19.2301 74.9751 10.2665C74.7967 10.1302 74.6161 9.99431 74.4339 9.85901C66.3317 18.9335 63.8967 21.6512 61.1977 24.6951C60.9698 24.5703 60.7399 24.4479 60.5078 24.3278C57.5418 27.819 54.625 31.358 51.693 34.878C51.9219 35.1413 52.1281 35.4248 52.3087 35.7255C55.6584 32.2744 59.0311 28.8382 62.3417 25.3498ZM59.7422 23.9434C59.5164 23.8334 59.2885 23.7259 59.0586 23.62C61.582 20.2015 63.5866 17.4494 70.8897 7.46852C70.6801 7.34017 70.4682 7.21278 70.2541 7.08633C62.9949 17.1734 61.0326 19.8873 58.5376 23.3858C58.3093 23.2852 58.0795 23.1869 57.8477 23.0911C55.4083 26.6756 53.0103 30.293 50.6021 33.8986C50.8913 34.1003 51.1619 34.327 51.4107 34.5754C54.1927 31.0368 56.994 27.5083 59.7422 23.9434ZM57.0928 22.7883C56.8715 22.7026 56.6482 22.6189 56.4237 22.537C58.6977 18.6765 60.2647 15.9699 66.5827 5.12133C66.3424 5.00532 66.0999 4.89056 65.8549 4.77708C59.6061 15.7214 58.076 18.3851 55.8485 22.3328C55.6259 22.2559 55.402 22.181 55.1762 22.108C53.2003 25.7996 51.2639 29.5144 49.312 33.2186C49.6432 33.3438 49.9608 33.4981 50.2608 33.678C52.5417 30.0514 54.84 26.4322 57.0928 22.7883ZM54.4245 21.8741C54.2016 21.8074 53.9774 21.7426 53.7516 21.6797C55.7054 17.3978 56.88 14.7661 62.0805 3.20502C61.8317 3.11239 61.5807 3.02103 61.3275 2.93126C56.2116 14.5695 55.0635 17.1607 53.1735 21.5248C52.9471 21.4669 52.7217 21.4125 52.4972 21.3613C50.9415 25.1911 49.4228 29.0373 47.8874 32.8753C48.2442 32.9155 48.5912 32.9872 48.9258 33.0878C50.7612 29.3519 52.6127 25.6217 54.4245 21.8741ZM51.746 21.2023C51.5269 21.1593 51.3087 21.1195 51.0912 21.0828C52.6645 16.4071 53.4896 13.8759 57.4954 1.72336C57.4496 1.71072 57.4038 1.69808 57.3577 1.68543C57.1253 1.62189 56.8926 1.56025 56.6602 1.50082C52.7523 13.7353 51.9494 16.2187 50.4594 20.9851C50.24 20.9539 50.0211 20.926 49.8033 20.9011C48.6597 24.8747 47.5476 28.8587 46.4226 32.8377C46.7712 32.8377 47.1293 32.8282 47.4769 32.8434C48.9037 28.9649 50.3416 25.0887 51.746 21.2023ZM49.054 20.8321C48.8447 20.816 48.6344 20.8018 48.4235 20.7895C49.5617 15.7246 50.0701 13.3423 52.818 0.707674C52.5114 0.659307 52.2051 0.614735 51.8992 0.573639C49.2694 13.2709 48.7768 15.5997 47.7466 20.756C47.5388 20.7477 47.3301 20.7414 47.1208 20.7364C46.4091 24.7672 45.7242 28.804 45.028 32.8377H46.0261C47.0377 28.8366 48.061 24.8374 49.054 20.8321ZM44.6485 32.8377C45.5086 26.8643 46.0119 23.4079 46.3873 20.7272C46.3551 20.7269 46.3232 20.7269 46.291 20.7269C46.124 20.7269 45.9572 20.7291 45.7905 20.7332C46.4271 15.3468 46.662 13.122 48.0834 0.24203C47.7519 0.228753 47.4217 0.219902 47.0917 0.214844C45.8054 13.1242 45.5787 15.2969 45.077 20.7635C44.879 20.7752 44.6813 20.7898 44.4849 20.8078C44.2983 23.485 44.0732 26.9601 43.6836 32.8377H44.6485ZM43.312 32.8377C43.5352 27.023 43.6735 23.5546 43.7676 20.8846C43.58 20.908 43.3931 20.9343 43.2068 20.9627C43.2867 15.2953 43.2873 13.2554 43.3603 0.329911C43.0089 0.356781 42.6587 0.388393 42.3098 0.424431C42.3827 13.3613 42.3827 15.3389 42.4645 21.0895C42.2798 21.1246 42.0961 21.1622 41.9132 21.2017C42.007 23.8293 42.1431 27.2506 42.3575 32.8377H43.312ZM41.9862 32.8377C41.6228 27.3584 41.4024 23.9671 41.2233 21.3635C41.05 21.4072 40.8776 21.453 40.7058 21.5007C40.1754 15.5754 39.9837 13.7549 38.7176 0.958356C38.3517 1.02917 37.9873 1.10535 37.6245 1.18628C39.0435 13.9686 39.2269 15.7218 39.9506 21.7258C39.7817 21.7792 39.6134 21.8346 39.4467 21.8924C39.8044 24.4157 40.2805 27.6932 41.021 32.8377H41.9862ZM40.6414 32.8377C39.7788 27.8367 39.2266 24.612 38.7931 22.1286C38.6362 22.188 38.4799 22.2496 38.3245 22.3125C37.1263 16.1741 36.7881 14.5866 34.2193 2.10018C33.8445 2.21841 33.4719 2.34169 33.1015 2.46972C35.8248 14.9109 36.1462 16.4314 37.5702 22.6337C37.4184 22.7014 37.2677 22.7712 37.1175 22.842C37.7107 25.2066 38.4849 28.2543 39.6434 32.8377H40.6414ZM39.2471 32.8377C37.9999 28.4244 37.1632 25.4519 36.5068 23.142C36.3666 23.2135 36.2274 23.2862 36.0891 23.3605C34.1716 17.0789 33.7283 15.7192 29.922 3.72061C29.5444 3.8872 29.1699 4.05949 28.7983 4.23683C32.7539 16.1567 33.1729 17.4547 35.3477 23.7743C35.2132 23.8527 35.0797 23.9323 34.9471 24.0133C35.7355 26.1654 36.7442 28.9027 38.1907 32.8377H39.2471ZM37.7669 32.8377C36.271 29.0917 35.2189 26.4505 34.3838 24.3673C34.2606 24.447 34.1381 24.5279 34.0166 24.6101C31.34 18.2751 30.826 17.1247 25.8746 5.77854C25.5004 5.99509 25.1304 6.217 24.7644 6.44461C29.8535 17.6785 30.3385 18.7752 33.3001 25.1127C33.183 25.1984 33.0665 25.285 32.9509 25.3723C33.8764 27.2589 35.0351 29.6124 36.6211 32.8377H37.7669ZM36.157 32.8377C34.5653 29.814 33.3889 27.5756 32.4375 25.7725C32.3308 25.8578 32.225 25.9441 32.1199 26.031C28.6613 19.7491 28.1005 18.7815 22.1188 8.23258C21.7551 8.49938 21.3958 8.77188 21.0418 9.05006C27.1429 19.4548 27.673 20.3785 31.4382 26.6187C31.3375 26.7088 31.2377 26.7998 31.1389 26.8915C32.1231 28.4579 33.3219 30.3616 34.8801 32.8377H36.157ZM34.3582 32.8377C32.843 30.5702 31.6602 28.799 30.6773 27.3309C30.5706 27.4352 30.4648 27.5408 30.3603 27.647L30.3783 27.6287C26.1186 21.5188 25.5276 20.707 18.6454 11.0843C18.3302 11.3732 18.0202 11.6669 17.7152 11.965C24.6839 21.4302 25.2488 22.2114 29.7992 28.2376C29.7048 28.3403 29.6117 28.4437 29.5195 28.5477C30.4528 29.736 31.5494 31.1297 32.8925 32.8377H34.3582ZM32.2873 32.8377L29.1125 29.0212C29.0238 29.1271 28.936 29.2336 28.8495 29.3411C23.8115 23.5198 23.1952 22.8354 15.5669 14.2351C15.2868 14.555 15.0124 14.8793 14.7437 15.2074C22.4282 23.6352 23.0231 24.2974 28.3446 29.992C28.2628 30.1014 28.1823 30.2114 28.1027 30.3227L32.2873 34.6289V32.8377ZM32.2873 35.2424L27.7526 30.8253L27.5284 31.1642L12.8913 17.6615C12.6504 18.0089 12.4155 18.3601 12.1866 18.7148C20.4195 26.0352 21.0469 26.5991 27.1022 31.8511C27.0336 31.9668 26.9664 32.0828 26.9001 32.1992L32.2873 36.6906V35.2424ZM32.2873 37.2008L26.6112 32.7271C26.549 32.845 26.4884 32.9629 26.4287 33.0818C19.9408 28.1693 19.2661 27.6755 10.6521 21.319C10.4535 21.6898 10.2618 22.0637 10.0765 22.4409C18.6791 28.6087 19.3457 29.0904 26.087 33.7987L26.1281 33.7089C26.0596 33.8591 25.9933 34.0099 25.9285 34.1607L32.2873 38.4204V37.2008ZM32.2873 38.8601L25.7059 34.7088C25.6586 34.8309 25.6128 34.9532 25.5683 35.0758C18.4303 30.7643 17.7127 30.3445 8.87949 25.1576C8.72699 25.5471 8.58175 25.9391 8.44346 26.3339C17.2283 31.332 17.9457 31.7408 25.3192 35.8156C25.2803 35.9392 25.2434 36.0634 25.2077 36.1876L32.2873 39.9226V38.8601ZM32.2873 40.3133L25.0571 36.7497C25.0258 36.8746 24.9965 36.9994 24.9687 37.1246C17.2362 33.4975 16.4614 33.1444 7.5998 29.1211C7.4975 29.5248 7.40404 29.931 7.3191 30.3394C16.0875 34.1762 16.8725 34.5173 24.8197 37.8773C24.7982 38.0031 24.778 38.1289 24.7597 38.2544L32.2873 41.267V40.3133ZM32.2873 41.6236L24.6874 38.8228C24.6738 38.9483 24.6618 39.0741 24.6517 39.1999C16.396 36.3365 15.5331 36.0448 6.8758 33.1624C6.83128 33.5752 6.79529 33.9897 6.7675 34.405C15.2773 37.1088 16.1655 37.3854 24.6103 39.9529C24.6069 40.0781 24.605 40.203 24.6046 40.3282L32.2873 42.5031V41.6236ZM32.2873 42.8369L24.6103 40.8905C24.6125 41.0145 24.6157 41.1374 24.6201 41.2598C15.9309 39.2341 14.9376 39.0074 6.70657 37.1961C6.71572 37.6089 6.73309 38.0224 6.75835 38.4359C14.7933 40.0876 15.8343 40.2921 24.6552 41.9913C24.6627 42.1127 24.6713 42.2331 24.6804 42.3532L32.2873 43.6677V42.8369ZM32.2873 43.9869L24.7281 42.8954C24.7401 43.0146 24.7527 43.1328 24.7663 43.2504C15.8353 42.1354 14.6506 41.99 7.03652 41.1346C7.09524 41.5402 7.16123 41.9454 7.23512 42.3501C14.6181 43.0743 15.87 43.1834 24.8579 43.9534C24.8749 44.0701 24.8929 44.1858 24.9115 44.3008L32.2873 44.7905V43.9869ZM32.2873 45.1028L25.0028 44.8218C25.0243 44.9362 25.0464 45.0497 25.0694 45.1623C16.0992 44.9884 14.6803 44.9618 7.80629 44.9122C7.90985 45.3045 8.02036 45.6959 8.13814 46.0853C14.7655 46.0373 16.2621 46.0088 25.2184 45.835C25.2453 45.9466 25.2728 46.0572 25.3012 46.1672L32.2873 45.8976V45.1028ZM32.2873 46.2102L25.4363 46.6648C25.4673 46.7738 25.4991 46.8816 25.5317 46.9891C16.7077 47.745 15.038 47.8878 8.95875 48.4815C9.10241 48.8558 9.2527 49.2282 9.40962 49.5984C15.2439 48.9393 16.9925 48.7205 25.7391 47.6283C25.7754 47.7339 25.8124 47.8388 25.8502 47.9429L32.2873 47.0135V46.2102ZM32.2873 47.3331L26.0296 48.4145C26.0703 48.5172 26.1117 48.619 26.154 48.7199C17.6388 50.3602 15.7282 50.7272 10.4402 51.8087C10.6195 52.1611 10.8055 52.5111 10.9975 52.8579C16.055 51.7388 18.036 51.2754 26.4183 49.3211C26.464 49.4201 26.5108 49.5184 26.5581 49.6158L32.2873 48.1638V47.3331ZM32.2873 48.4973L26.7801 50.0567C26.8303 50.1525 26.8808 50.2474 26.9323 50.3416C18.8635 52.7943 16.7459 53.4364 12.202 54.8719C12.4129 55.1991 12.6299 55.5231 12.8528 55.8443C17.1895 54.3911 19.3618 53.6352 27.2512 50.8986C27.3061 50.9902 27.3614 51.0807 27.4179 51.1711L32.2873 49.3768V48.4973ZM32.2873 49.7334L27.6806 51.5776C27.739 51.6652 27.7984 51.7521 27.8584 51.8381C20.3466 55.0138 18.0751 55.9716 14.1997 57.6556C14.4381 57.9553 14.6822 58.2515 14.9313 58.5439C18.6274 56.8533 20.9316 55.7696 28.2271 52.3467C28.2903 52.4299 28.3538 52.5124 28.4182 52.5939L32.2873 50.6871V49.7334Z" fill="#3460D9"/>
<path d="M141.812 40.8547L156.104 22.9285H142.291L141.333 20.7271H159.088V22.614L144.796 40.5401H160.361L159.403 42.7416H141.812V40.8547Z" fill="#303B59"/>
<path d="M128.204 20.7271H130.717L140.297 42.7416H137.785L129.461 23.306L121.136 42.7416H118.623L128.204 20.7271Z" fill="#303B59"/>
<path d="M101.979 20.7271H111.022C111.922 20.7271 112.765 20.8791 113.551 21.1829C114.336 21.487 115.016 21.9011 115.592 22.4252C116.168 22.9494 116.618 23.5731 116.943 24.2964C117.268 25.02 117.43 25.7903 117.43 26.6081C117.43 27.6355 117.174 28.5422 116.66 29.3283C116.147 30.1145 115.42 30.6861 114.477 31.0423C115.022 31.189 115.545 31.4198 116.048 31.7343C116.55 32.0489 116.99 32.4367 117.367 32.898C117.744 33.3592 118.048 33.8937 118.278 34.502C118.508 35.1098 118.623 35.7911 118.623 36.546C118.623 37.4055 118.461 38.2129 118.137 38.9678C117.812 39.7223 117.362 40.3777 116.786 40.9331C116.21 41.4888 115.524 41.9292 114.728 42.2541C113.933 42.5791 113.064 42.7416 112.121 42.7416H101.979V20.7271ZM112.121 40.6031C112.792 40.6031 113.383 40.493 113.896 40.2727C114.409 40.0527 114.844 39.759 115.2 39.3923C115.556 39.0253 115.828 38.5957 116.016 38.1029C116.205 37.61 116.299 37.0913 116.299 36.546C116.299 36.001 116.205 35.4819 116.016 34.9894C115.828 34.4966 115.556 34.0667 115.2 33.7C114.844 33.3329 114.409 33.0396 113.896 32.8192C113.383 32.5992 112.792 32.4892 112.121 32.4892H104.24V40.6031H112.121ZM111.022 30.3504C111.629 30.3504 112.184 30.2511 112.687 30.0516C113.19 29.8528 113.619 29.5853 113.975 29.2496C114.331 28.9142 114.608 28.5159 114.807 28.0547C115.006 27.5935 115.105 27.1114 115.105 26.6081C115.105 26.1049 115.006 25.6228 114.807 25.1616C114.608 24.7 114.331 24.3017 113.975 23.9663C113.619 23.6309 113.19 23.3635 112.687 23.1643C112.184 22.9652 111.629 22.8656 111.022 22.8656H104.24V30.3504H111.022Z" fill="#303B59"/>
<path d="M158.519 48.2524H176.464L175.53 50.3904H168.205V50.4533V54.2331V70.2594H165.85V56.0628V50.4533V50.3904H157.592L158.519 48.2524Z" fill="#303B59"/>
<path d="M141.812 48.2524H157.007L156.074 50.3904H144.073V57.8726H154.332L153.402 60.0105H144.073V68.1215H156.482L157.412 70.2594H141.812V48.2524Z" fill="#303B59"/>
<path d="M109.398 70.6367C107.912 70.6367 106.441 70.4584 104.986 70.1022C103.595 69.7617 102.353 69.2199 101.259 68.477L101.988 66.8012C102.658 67.1155 103.333 67.3775 104.013 67.5871C104.693 67.7967 105.358 67.9646 106.007 68.0904C106.656 68.2159 107.279 68.305 107.875 68.3575C108.472 68.41 109.011 68.4362 109.492 68.4362C110.246 68.4362 111.026 68.3733 111.832 68.2475C112.638 68.1217 113.376 67.9175 114.045 67.6342C114.715 67.3513 115.27 66.9741 115.71 66.5025C116.149 66.0312 116.369 65.4495 116.369 64.7578C116.369 64.0662 116.155 63.4741 115.725 62.9816C115.296 62.489 114.762 62.0699 114.124 61.724C113.486 61.3782 112.795 61.0899 112.052 60.8595C111.308 60.6287 110.633 60.4194 110.026 60.2307C109.147 59.9791 108.2 59.6911 107.184 59.3661C106.169 59.0411 105.227 58.6327 104.358 58.1399C103.49 57.6474 102.762 57.0398 102.176 56.3165C101.59 55.5935 101.297 54.6977 101.297 53.6285C101.297 52.6018 101.559 51.7268 102.082 51.0035C102.605 50.2805 103.286 49.6884 104.123 49.2272C104.96 48.7663 105.897 48.4255 106.933 48.2055C107.969 47.9855 109.001 47.8755 110.026 47.8755C111.513 47.8755 112.889 48.0535 114.155 48.41C115.422 48.7663 116.683 49.3113 117.939 50.0447L117.228 51.6654C116.098 51.1745 114.931 50.7851 113.732 50.5005C112.538 50.2176 111.324 50.0763 110.089 50.0763C109.252 50.0763 108.44 50.1547 107.655 50.3121C106.871 50.4692 106.18 50.6997 105.583 51.0035C104.986 51.3073 104.51 51.6794 104.154 52.1197C103.798 52.5597 103.621 53.0523 103.621 53.5972C103.621 54.226 103.851 54.7761 104.311 55.2477C104.772 55.7194 105.332 56.1281 105.991 56.4739C106.651 56.8198 107.336 57.1027 108.048 57.3227C108.76 57.5427 109.356 57.7261 109.838 57.8728C110.843 58.1661 111.868 58.4807 112.915 58.8161C113.962 59.1511 114.914 59.5703 115.773 60.0736C116.631 60.5765 117.332 61.1999 117.876 61.9441C118.421 62.6882 118.693 63.6154 118.693 64.7262C118.693 65.8582 118.405 66.8066 117.829 67.5716C117.254 68.3366 116.516 68.9442 115.616 69.395C114.715 69.8455 113.716 70.1651 112.617 70.3538C111.518 70.5425 110.445 70.6367 109.398 70.6367Z" fill="#303B59"/>
<path d="M170.498 20.7271H173.011L182.591 42.7416H180.078L171.754 23.306L163.43 42.7416H160.917L170.498 20.7271Z" fill="#303B59"/>
<path d="M128.204 70.267H130.717L140.297 48.2524H137.785L129.461 67.6881L121.136 48.2524H118.623L128.204 70.267Z" fill="#303B59"/>
<path d="M182.473 48.2451H184.986L194.567 70.2597H192.054L183.73 50.824L175.406 70.2597H172.893L182.473 48.2451Z" fill="#303B59"/>
<path d="M191.826 20.7271C192.34 20.7271 192.806 20.8465 193.224 21.0858C193.641 21.3248 193.97 21.6533 194.209 22.0718C194.448 22.49 194.567 22.9541 194.567 23.4634C194.567 23.9726 194.445 24.4392 194.201 24.8625C193.957 25.2861 193.625 25.6203 193.204 25.8643C192.784 26.1087 192.319 26.2307 191.81 26.2307C191.302 26.2307 190.839 26.1087 190.421 25.8643C190.003 25.6203 189.673 25.2874 189.432 24.8666C189.19 24.4456 189.07 23.9831 189.07 23.4789C189.07 22.9747 189.19 22.5122 189.432 22.0914C189.673 21.6704 190.004 21.3378 190.425 21.0934C190.845 20.8494 191.312 20.7271 191.826 20.7271ZM191.81 25.802C192.241 25.802 192.632 25.698 192.982 25.4903C193.333 25.2823 193.609 25.0004 193.812 24.6444C194.014 24.2885 194.115 23.8946 194.115 23.4634C194.115 23.0319 194.017 22.6408 193.819 22.2903C193.622 21.9394 193.35 21.6624 193.002 21.4598C192.654 21.2572 192.262 21.156 191.826 21.156C191.39 21.156 190.996 21.2584 190.643 21.4636C190.29 21.6691 190.013 21.9485 189.813 22.302C189.614 22.6551 189.513 23.0477 189.513 23.4789C189.513 23.9104 189.614 24.3027 189.813 24.6561C190.013 25.0095 190.288 25.2887 190.639 25.4941C190.989 25.6993 191.38 25.802 191.81 25.802ZM193.235 23.0113C193.235 23.2399 193.182 23.4346 193.076 23.5958C192.969 23.7571 192.817 23.8791 192.62 23.9622L193.305 25.0146H192.636L192.029 24.0792H191.943H191.336V25.0146H190.666V21.9432H191.943C192.342 21.9432 192.658 22.0393 192.889 22.2318C193.12 22.424 193.235 22.6838 193.235 23.0113ZM191.904 23.557C192.122 23.557 192.291 23.5089 192.41 23.4128C192.529 23.3164 192.589 23.1827 192.589 23.0113C192.589 22.8397 192.529 22.7072 192.41 22.6137C192.291 22.5201 192.122 22.4733 191.904 22.4733H191.328V23.557H191.904Z" fill="#303B59"/>
<path d="M136.285 35.0991H122.635V37.2377H136.285V35.0991Z" fill="#303B59"/>
<path d="M178.578 35.0991H164.929V37.2377H178.578V35.0991Z" fill="#303B59"/>
<path d="M190.554 62.6172H176.904V64.7557H190.554V62.6172Z" fill="#303B59"/>
</svg>
