<svg width="268" height="91" viewBox="0 0 268 91" fill="none" xmlns="http://www.w3.org/2000/svg">
<path fill-rule="evenodd" clip-rule="evenodd" d="M85.0372 20.8035C75.6878 26.2426 71.8181 28.4896 68.7266 30.2934C68.6376 30.2055 68.5479 30.1179 68.4576 30.031C65.3166 31.8942 62.953 33.3284 56.3291 37.3381C56.2625 37.2673 56.1949 37.1974 56.1273 37.1285C55.134 37.755 54.1407 38.3816 53.1471 39.0078C53.1328 39.3834 53.0836 39.7583 52.9987 40.1247C54.3172 39.4305 55.6341 38.7334 56.952 38.0383C56.8889 37.9627 56.8251 37.8881 56.761 37.8145C63.6382 34.0226 65.9952 32.7262 69.2943 30.8665C69.2072 30.7764 69.1194 30.6866 69.0313 30.5975C72.125 28.8256 76.0256 26.5808 85.333 21.2353C85.2361 21.0921 85.1376 20.9482 85.0372 20.8035ZM29.8204 68.6674C27.5932 72.6151 26.0631 75.2787 19.8143 86.2231C19.5693 86.1096 19.3268 85.9948 19.0865 85.8785C25.4045 75.0302 26.9712 72.3236 29.2455 68.4632C29.021 68.3813 28.7978 68.2975 28.5764 68.2119C31.0559 64.2013 33.5866 60.2191 36.0971 56.2278H37.1753C34.9515 60.4502 32.7448 64.6849 30.493 68.8922C30.4286 68.8713 29.8204 68.6674 29.8204 68.6674ZM17.2113 60.9689C20.3523 59.1057 22.716 57.6715 29.3399 53.6618C29.4068 53.7327 29.4741 53.8028 29.5416 53.8714C30.4011 53.3296 31.4276 52.6819 32.287 52.14V51.0776L28.7169 52.9616C28.7801 53.0372 28.8439 53.1118 28.9079 53.1854C22.0308 56.977 19.6738 58.2737 16.3746 60.1334C16.4618 60.2232 16.5499 60.313 16.6376 60.4025C13.5437 62.1743 9.64334 64.4187 0.335938 69.7646C0.43287 69.9078 0.531381 70.0517 0.631787 70.1965C9.98118 64.7573 13.8509 62.5103 16.9423 60.7066C17.0317 60.7944 17.121 60.8817 17.2113 60.9689ZM30.0001 54.32C23.7705 58.5958 21.3999 60.2188 18.569 62.2091C18.7105 62.3317 18.8535 62.4531 18.9975 62.5736C16.0134 64.7232 12.5564 67.2281 3.4242 73.8306C3.54134 73.9687 3.66037 74.1068 3.78067 74.2453C12.939 67.5429 16.3588 65.0453 19.3394 62.8555C19.4844 62.9734 19.6302 63.0904 19.7774 63.2061C22.4293 61.2073 24.7695 59.4007 30.6344 54.8843C30.6789 54.9216 30.7238 54.9592 30.7686 54.9962L32.287 53.7994V52.5801L29.8719 54.1983C29.9142 54.2391 29.9572 54.2799 30.0001 54.32ZM31.1974 55.3363C25.6536 60.0162 23.3395 61.9634 20.9118 64.0609C21.0931 64.1918 21.2762 64.3207 21.4606 64.4485C18.5987 66.9986 15.6254 69.6689 6.89008 77.4922C7.03753 77.6319 7.18656 77.7716 7.33749 77.911C16.0794 69.9787 19.0095 67.327 21.8644 64.7232C22.0491 64.8471 22.2354 64.9691 22.4229 65.0896C24.6691 62.9725 26.9011 60.8185 32 55.912L32.0764 55.9632L32.287 55.758V54.3099L31.1238 55.2797L31.1974 55.3363ZM32.4354 56.2278C27.5957 61.2127 25.4067 63.4596 23.3275 65.6503C23.5524 65.7847 23.7787 65.9168 24.0077 66.0468C21.2935 69.023 18.8137 71.7701 10.6941 80.7333C10.8725 80.8699 11.0531 81.0058 11.2353 81.1411C19.3375 72.0666 21.7722 69.3489 24.4715 66.305C24.6994 66.4296 24.9293 66.5519 25.1614 66.6724C28.0978 63.2162 30.9862 59.7133 33.8881 56.2278H32.4354ZM25.927 67.0568C26.1528 67.1665 26.3808 67.2743 26.6106 67.3798C24.0872 70.7987 22.0826 73.5505 14.7795 83.5313C14.9891 83.6597 15.201 83.7871 15.4151 83.9135C22.6743 73.8268 24.6363 71.1129 27.1316 67.6144C27.3599 67.7146 27.5897 67.8129 27.8215 67.909C30.4579 64.0347 33.0464 60.1236 35.6512 56.2278H34.4135C31.5804 59.8325 28.7261 63.4258 25.927 67.0568ZM31.2447 69.1261C31.4677 69.1928 31.6918 69.2576 31.9176 69.3205C29.9638 73.6023 28.7892 76.2337 23.5887 87.7951C23.8375 87.8878 24.0885 87.9791 24.3414 88.0689C29.4577 76.4306 30.6057 73.8394 32.4957 69.4754C32.7221 69.5332 32.9475 69.5879 33.172 69.6388C34.9841 65.1774 36.7532 60.699 38.5396 56.2278H37.5716C35.4596 60.5251 33.3286 64.8155 31.2447 69.1261ZM33.9232 69.7978C34.1423 69.8408 34.3605 69.8807 34.578 69.9173C33.0047 74.593 32.1797 77.1242 28.1739 89.2768C28.2196 89.2894 28.2654 89.3021 28.3112 89.3144C28.5439 89.3783 28.7763 89.4399 29.009 89.4993C32.9169 77.2649 33.7198 74.7811 35.2095 70.015C35.4296 70.0463 35.6484 70.0741 35.8659 70.0991C37.1949 65.4815 38.4859 60.8517 39.7934 56.2278H38.9011C37.2419 60.7511 35.5606 65.2663 33.9232 69.7978ZM36.6149 70.168C36.8245 70.1844 37.0348 70.1984 37.2457 70.2107C37.2454 70.2126 37.2448 70.2142 37.2445 70.2161C36.1068 75.2771 35.5982 77.6622 32.8512 90.2925C33.1578 90.3405 33.4641 90.3854 33.77 90.4265C36.3998 77.729 36.8924 75.4001 37.9227 70.2442C38.1307 70.2524 38.3391 70.259 38.5485 70.2638C39.3741 65.5884 40.167 60.9063 40.9749 56.2278H40.1319C38.9577 60.8738 37.7683 65.5169 36.6149 70.168ZM39.2819 70.273C39.4808 70.2736 39.6794 70.272 39.8784 70.267C39.2421 75.6533 39.0072 77.8778 37.5858 90.7581C37.917 90.7711 38.2476 90.7803 38.5775 90.7853C39.8635 77.8759 40.0905 75.7033 40.5923 70.2366C40.7902 70.2249 40.9876 70.2101 41.1843 70.1923C41.5085 65.5388 41.8041 60.8823 42.1141 56.2278H41.2989C40.626 60.9092 39.938 65.5893 39.2819 70.273ZM41.9013 70.1152C42.0892 70.0918 42.2761 70.0659 42.4624 70.0375C42.3825 75.7048 42.3819 77.7444 42.3089 90.6702C42.66 90.6431 43.0105 90.6114 43.3594 90.5757C43.2865 77.6389 43.2865 75.6612 43.2047 69.9104C43.3891 69.8756 43.5728 69.8383 43.756 69.7985C43.5946 65.2748 43.4099 60.7511 43.2375 56.2278H42.4311C42.2537 60.8567 42.0646 65.486 41.9013 70.1152ZM44.4459 69.6366C44.6192 69.593 44.7916 69.5471 44.9634 69.4994C45.4938 75.4248 45.6855 77.245 46.9516 90.0418C47.3175 89.9707 47.6819 89.8948 48.0447 89.8139C46.6257 77.0316 46.4423 75.2784 45.7186 69.2743C45.8872 69.2206 46.0552 69.1653 46.2225 69.1077C45.6135 64.8133 44.988 60.5207 44.3698 56.2278H43.5545C43.8513 60.6971 44.1383 65.168 44.4459 69.6366ZM46.8758 68.8713C47.0327 68.8119 47.189 68.7508 47.3447 68.6876C48.5429 74.826 48.8811 76.4133 51.4499 88.8997C51.8247 88.7817 52.1973 88.6585 52.5673 88.5304C49.8444 76.0892 49.523 74.5687 48.099 68.3664C48.2505 68.2985 48.4015 68.2289 48.5518 68.1581C47.5531 64.1798 46.5414 60.2046 45.5368 56.2278H44.6937C45.4218 60.442 46.1408 64.6584 46.8758 68.8713ZM49.1624 67.8581C49.3026 67.7867 49.4418 67.714 49.5801 67.6397C51.4973 73.921 51.9409 75.2809 55.7472 87.2795C56.1248 87.113 56.4993 86.9407 56.8709 86.7633C52.915 74.8434 52.496 73.5454 50.3215 67.2256C50.456 67.1472 50.5896 67.0678 50.7218 66.9869C49.4081 63.3989 48.0832 59.8151 46.7675 56.2278H45.8752C46.9712 60.1043 48.0608 63.9828 49.1624 67.8581ZM51.2851 66.6329C51.4086 66.5529 51.5308 66.4719 51.6523 66.3901C54.3292 72.7251 54.8432 73.8755 59.7947 85.2216C60.1685 85.0051 60.5389 84.7831 60.9048 84.5555C55.8157 73.3216 55.3304 72.225 52.3691 65.8874L52.358 65.8953C52.4789 65.8071 52.5992 65.7177 52.718 65.6279C51.617 63.3828 50.1851 60.4767 48.0968 56.2271C47.7747 56.2306 47.4514 56.2278 47.129 56.2278C48.5148 59.6959 49.8959 63.166 51.2851 66.6329ZM48.4851 56.212C50.6145 60.2551 52.0862 63.0569 53.2317 65.2277C53.3384 65.1423 53.4442 65.056 53.549 64.9691C57.0079 71.251 57.5687 72.2187 63.5501 82.7676C63.9141 82.5008 64.2734 82.2283 64.6274 81.9501C58.5263 71.5453 57.9962 70.6216 54.231 64.3811C54.3317 64.291 54.4315 64.2003 54.5303 64.1086C53.286 62.1278 51.6981 59.6084 49.475 56.0735C49.1526 56.1427 48.8223 56.1895 48.4851 56.212ZM49.8529 55.9812C52.0982 59.3393 53.7141 61.7605 54.9919 63.6692C55.0926 63.5706 55.1921 63.4713 55.2909 63.3714C59.5503 69.4811 60.1417 70.2932 67.0238 79.9159C67.3386 79.6269 67.649 79.3333 67.954 79.0351C60.985 69.5699 60.4201 68.7888 55.87 62.7626C55.9644 62.6599 56.0575 62.5562 56.1494 62.4525C54.7949 60.7274 53.0959 58.5693 50.7983 55.6461C50.4939 55.7798 50.1781 55.8921 49.8529 55.9812ZM51.1503 55.4798C53.4587 58.2538 55.1769 60.3222 56.5567 61.9789C56.6455 61.873 56.7332 61.7662 56.8194 61.659C61.8577 67.4804 62.474 68.1648 70.1023 76.7651C70.3824 76.4452 70.6568 76.1208 70.9255 75.7927C63.2406 67.365 62.6458 66.7027 57.3246 61.0081C57.4064 60.8984 57.4872 60.7884 57.5665 60.6775C56.1267 59.1946 54.3481 57.3658 52.0113 54.9605C51.7382 55.1533 51.4506 55.3272 51.1503 55.4798ZM52.3233 54.7265C54.6648 57.0067 56.4576 58.7545 57.9166 60.1748C57.9927 60.0623 58.0672 59.9494 58.1408 59.836C63.9258 65.2552 64.5683 65.835 72.7779 73.3387C73.0188 72.9913 73.2537 72.6401 73.4826 72.2854C65.2497 64.965 64.6223 64.4007 58.5671 59.1487C58.6356 59.0333 58.7028 58.9173 58.7688 58.801C57.2612 57.5431 55.4232 56.0122 53.065 54.045C52.8345 54.2896 52.5866 54.5176 52.3233 54.7265ZM53.3242 53.7535C55.6856 55.6145 57.5346 57.0731 59.058 58.2731C59.1202 58.1555 59.1809 58.0369 59.2405 57.9184C65.7284 62.8309 66.4031 63.3243 75.0172 69.6812C75.2154 69.3104 75.4074 68.9364 75.5927 68.5593C66.9901 62.3915 66.3235 61.9097 59.5822 57.2014C59.6362 57.081 59.6892 56.9605 59.7407 56.8395C58.1762 55.7912 56.2903 54.5286 53.9156 52.9373C53.7381 53.224 53.5405 53.4968 53.3242 53.7535ZM54.112 52.6C56.4895 54.0997 58.3855 55.2965 59.9633 56.2913C60.0106 56.1693 60.0564 56.047 60.1009 55.9243C67.2389 60.2355 67.9566 60.6557 76.7897 65.8426C76.9419 65.4531 77.0875 65.0608 77.2258 64.6663C68.4409 59.6681 67.7235 59.2594 60.35 55.1846C60.3889 55.061 60.4258 54.9371 60.4615 54.8125C58.8474 53.9609 56.9186 52.9442 54.5278 51.6823C54.411 51.9997 54.2717 52.3063 54.112 52.6ZM54.6522 51.3124C57.0474 52.4925 58.9857 53.4488 60.6121 54.2505C60.6431 54.1256 60.6727 54.0004 60.7005 53.8752C68.433 57.5027 69.2078 57.8558 78.0694 61.8787C78.1717 61.4754 78.2652 61.0691 78.3498 60.6607C69.5817 56.824 68.7967 56.4829 60.8495 53.1229C60.871 52.997 60.8912 52.8712 60.9095 52.7457C59.2503 52.0816 57.2829 51.2951 54.8748 50.3309C54.824 50.6666 54.7491 50.9944 54.6522 51.3124ZM54.9225 49.9436C57.335 50.8323 59.3116 51.5615 60.9818 52.1773C60.9954 52.0518 61.0074 51.926 61.0175 51.8005C69.2732 54.6636 70.1361 54.9554 78.7934 57.8375C78.8379 57.4249 78.8739 57.0108 78.9017 56.5951C70.3919 53.8913 69.5037 53.6151 61.0589 51.0472C61.0624 50.9223 61.0643 50.7972 61.0643 50.672C59.3662 50.1915 57.3663 49.6259 54.9455 48.94C54.9509 49.0528 54.9537 49.1666 54.9537 49.2807C54.9537 49.5042 54.943 49.7255 54.9225 49.9436ZM54.9158 48.5518C57.3417 49.1663 59.3507 49.6762 61.0589 50.1096C61.0564 49.9857 61.0532 49.8627 61.0491 49.7401C69.7383 51.7661 70.7316 51.9927 78.9626 53.8041C78.9535 53.3912 78.9361 52.9778 78.9109 52.564C70.8756 50.9125 69.8349 50.708 61.014 49.0086C61.0065 48.8875 60.9976 48.767 60.9888 48.6469C59.2446 48.3457 57.199 47.9929 54.7409 47.5677C54.8221 47.8873 54.8811 48.216 54.9158 48.5518ZM54.6351 47.1937C57.1147 47.5513 59.1793 47.85 60.9411 48.1048C60.9291 47.9856 60.9165 47.8674 60.9029 47.7498C69.8339 48.8647 71.0186 49.0101 78.6327 49.8652C78.574 49.4597 78.5077 49.0547 78.4341 48.6501C71.0511 47.9259 69.7989 47.8165 60.8113 47.0467C60.7943 46.9301 60.7763 46.8141 60.7577 46.699C58.5948 46.5561 56.432 46.4129 54.2692 46.2688C54.4132 46.5678 54.5357 46.8773 54.6351 47.1937ZM60.6664 46.1783C60.6449 46.0639 60.6228 45.9504 60.5998 45.8379C69.57 46.0118 70.9889 46.0383 77.8629 46.0876C77.7594 45.6953 77.6488 45.3043 77.5311 44.9145C70.9037 44.9629 69.4071 44.9913 60.4508 45.1652C60.4239 45.0536 60.3965 44.943 60.368 44.8329C58.0966 44.9211 55.8252 45.009 53.5534 45.096C53.7517 45.3583 53.9314 45.6349 54.0914 45.9242C56.283 46.0083 58.4749 46.0933 60.6664 46.1783ZM60.2329 44.3354C60.202 44.2263 60.1701 44.1185 60.1376 44.011C68.9616 43.2552 70.6312 43.1123 76.7105 42.5186C76.5668 42.1443 76.4165 41.772 76.2596 41.4018C70.4253 42.0609 68.6768 42.2796 59.9301 43.3718C59.8938 43.2663 59.8569 43.1613 59.8187 43.057C57.4231 43.4035 55.0273 43.7499 52.6311 44.0945C52.8742 44.3117 53.1022 44.5456 53.3128 44.7947C55.6193 44.6404 57.9261 44.4877 60.2329 44.3354ZM59.6396 42.5857C59.5989 42.4829 59.5575 42.3811 59.5152 42.28C68.0304 40.6399 69.9407 40.2729 75.229 39.1912C75.0497 38.839 74.8637 38.4891 74.6717 38.142C69.6142 39.2613 67.6329 39.7248 59.2509 41.679C59.2049 41.5801 59.1584 41.4818 59.1111 41.3841C56.5899 42.0239 54.0687 42.6628 51.5472 43.3007C51.8241 43.4648 52.0887 43.6478 52.3391 43.8479C54.7725 43.4262 57.2059 43.0058 59.6396 42.5857ZM58.8888 40.9431C58.8389 40.8473 58.7884 40.7525 58.7369 40.6586C66.8057 38.2055 68.923 37.5638 73.4672 36.1283C73.2563 35.8011 73.0393 35.4771 72.8164 35.1559C68.4797 36.6091 66.3074 37.3649 58.418 40.1013C58.3631 40.0099 58.3078 39.9195 58.2513 39.8291C56.2198 40.5783 54.1877 41.3269 52.1559 42.0748C51.9081 42.4462 51.6198 42.788 51.2971 43.094C53.8275 42.3761 56.3581 41.6594 58.8888 40.9431ZM57.9886 39.4226C57.9302 39.3347 57.8708 39.2477 57.8109 39.1618C65.3226 35.9863 67.5938 35.0285 71.4695 33.3442C71.2311 33.0449 70.987 32.7486 70.7379 32.4562C67.0419 34.1468 64.7376 35.2305 57.4421 38.6534C57.3789 38.5703 57.3155 38.4878 57.251 38.4062C55.7942 39.1245 54.3377 39.843 52.8802 40.56C52.7603 40.9434 52.6021 41.3101 52.4107 41.6559C54.2701 40.9112 56.1292 40.1667 57.9886 39.4226ZM53.148 38.5766C54.0311 37.9848 54.9139 37.3931 55.7971 36.8016C55.7544 36.7608 55.7118 36.7201 55.6689 36.6799C61.8984 32.4038 64.269 30.7811 67.1 28.7908C66.9585 28.6682 66.8155 28.5468 66.6715 28.4264C69.6556 26.2767 73.1129 23.7718 82.2448 17.1693C82.1276 17.0312 82.0089 16.8931 81.8883 16.7546C72.7299 23.457 69.3101 25.9546 66.3295 28.1441C66.1846 28.0265 66.0387 27.9095 65.8916 27.7938C63.2394 29.7923 60.8994 31.5992 55.0345 36.1156C54.99 36.078 54.9452 36.0407 54.9004 36.0037C54.2708 36.5 53.6412 36.996 53.0116 37.4923C53.089 37.8429 53.1354 38.2055 53.148 38.5766ZM52.9068 37.0864C53.453 36.6309 53.9989 36.1757 54.5452 35.7202L54.4716 35.6636C60.0154 30.9838 62.3294 29.0365 64.7571 26.939C64.5759 26.8081 64.3928 26.6792 64.2084 26.5518C67.0703 24.001 70.0436 21.3311 78.7789 13.5077C78.6314 13.368 78.4824 13.2283 78.3315 13.0889C69.5896 21.0213 66.6595 23.6729 63.8046 26.2767C63.6199 26.1531 63.4336 26.0308 63.246 25.9104C60.9998 28.0274 58.7679 30.1814 53.669 35.0879L53.5926 35.0367C53.2317 35.3882 52.8711 35.7395 52.5105 36.0907C52.6712 36.4074 52.8045 36.7403 52.9068 37.0864ZM62.3414 25.3496C62.1169 25.2152 61.8899 25.0831 61.6613 24.9531C64.3754 21.9769 66.8552 19.2298 74.9748 10.2662C74.7964 10.13 74.6158 9.99407 74.4337 9.85877C66.3314 18.9333 63.8964 21.651 61.1975 24.6949C60.9695 24.57 60.7397 24.4477 60.5076 24.3275C57.5415 27.8188 54.6247 31.3577 51.6927 34.8777C51.9217 35.141 52.1278 35.4246 52.3084 35.7252C55.6581 32.2742 59.0309 28.8379 62.3414 25.3496ZM59.7419 23.9431C59.5162 23.8331 59.2882 23.7257 59.0583 23.6198C61.5817 20.2012 63.5864 17.4491 70.8895 7.46827C70.6798 7.33993 70.4679 7.21253 70.2539 7.08609C62.9947 17.1731 61.0324 19.887 58.5374 23.3855C58.3091 23.285 58.0792 23.1867 57.8475 23.0909C55.4081 26.6754 53.01 30.2927 50.6019 33.8984C50.8911 34.1001 51.1617 34.3267 51.4105 34.5752C54.1925 31.0365 56.9937 27.508 59.7419 23.9431ZM57.0925 22.788C56.8712 22.7024 56.648 22.6186 56.4235 22.5367C58.6975 18.6763 60.2645 15.9697 66.5824 5.12109C66.3422 5.00507 66.0997 4.89032 65.8547 4.77683C59.6058 15.7212 58.0758 18.3848 55.8482 22.3325C55.6256 22.2557 55.4018 22.1808 55.176 22.1078C53.2001 25.7994 51.2637 29.5141 49.3117 33.2184C49.643 33.3436 49.9606 33.4979 50.2606 33.6777C52.5415 30.0512 54.8397 26.432 57.0925 22.788ZM54.4242 21.8738C54.2013 21.8071 53.9771 21.7423 53.7514 21.6794C55.7052 17.3976 56.8797 14.7659 62.0803 3.20477C61.8315 3.11215 61.5805 3.02079 61.3273 2.93101C56.2113 14.5693 55.0633 17.1605 53.1733 21.5245C52.9469 21.4667 52.7214 21.4123 52.4969 21.3611C50.9413 25.1909 49.4226 29.0371 47.8871 32.8751C48.2439 32.9152 48.5909 32.987 48.9256 33.0875C50.761 29.3516 52.6125 25.6214 54.4242 21.8738ZM51.7458 21.2021C51.5267 21.1591 51.3085 21.1193 51.091 21.0826C52.6643 16.4069 53.4893 13.8757 57.4951 1.72312C57.4493 1.71048 57.4036 1.69783 57.3575 1.68519C57.1251 1.62165 56.8924 1.56 56.66 1.50057C52.7521 13.735 51.9491 16.2185 50.4592 20.9849C50.2397 20.9536 50.0209 20.9258 49.803 20.9008C48.6594 24.8744 47.5474 28.8585 46.4224 32.8375C46.771 32.8375 47.129 32.828 47.4767 32.8432C48.9035 28.9647 50.3414 25.0884 51.7458 21.2021ZM49.0538 20.8319C48.8445 20.8158 48.6342 20.8016 48.4233 20.7892C49.5615 15.7244 50.0698 13.3421 52.8177 0.70743C52.5112 0.659063 52.2049 0.614491 51.8989 0.573395C49.2691 13.2706 48.7766 15.5995 47.7463 20.7557C47.5385 20.7475 47.3298 20.7412 47.1205 20.7361C46.4088 24.767 45.724 28.8038 45.0278 32.8375H46.0258C47.0375 28.8364 48.0608 24.8371 49.0538 20.8319ZM44.6483 32.8375C45.5083 26.8641 46.0116 23.4076 46.387 20.7269C46.3548 20.7266 46.3229 20.7266 46.2907 20.7266C46.1237 20.7266 45.957 20.7288 45.7903 20.733C46.4268 15.3466 46.6617 13.1218 48.0832 0.241786C47.7517 0.228509 47.4214 0.219658 47.0915 0.2146C45.8051 13.124 45.5784 15.2967 45.0767 20.7633C44.8787 20.775 44.6811 20.7895 44.4847 20.8076C44.2981 23.4848 44.073 26.9599 43.6834 32.8375H44.6483ZM43.3117 32.8375C43.535 27.0228 43.6732 23.5543 43.7673 20.8844C43.5798 20.9078 43.3929 20.934 43.2066 20.9625C43.2865 15.2951 43.2871 13.2552 43.36 0.329667C43.0086 0.356537 42.6585 0.388149 42.3096 0.424187C42.3825 13.3611 42.3825 15.3387 42.4643 21.0892C42.2796 21.1243 42.0958 21.1619 41.913 21.2014C42.0068 23.829 42.1429 27.2504 42.3572 32.8375H43.3117ZM41.9859 32.8375C41.6225 27.3582 41.4021 23.9669 41.2231 21.3633C41.0498 21.4069 40.8774 21.4528 40.7056 21.5005C40.1752 15.5752 39.9835 13.7546 38.7174 0.958112C38.3514 1.02892 37.9871 1.10511 37.6243 1.18603C39.0432 13.9683 39.2267 15.7215 39.9504 21.7256C39.7814 21.779 39.6131 21.8343 39.4464 21.8922C39.8042 24.4154 40.2803 27.693 41.0207 32.8375H41.9859ZM40.6412 32.8375C39.7786 27.8365 39.2264 24.6117 38.7928 22.1283C38.6359 22.1877 38.4796 22.2494 38.3243 22.3123C37.126 16.1739 36.7879 14.5863 34.219 2.09994C33.8442 2.21816 33.4717 2.34145 33.1013 2.46948C35.8246 14.9107 36.146 16.4312 37.57 22.6335C37.4181 22.7011 37.2675 22.771 37.1172 22.8418C37.7105 25.2064 38.4847 28.2541 39.6431 32.8375H40.6412ZM39.2469 32.8375C37.9997 28.4241 37.163 25.4517 36.5066 23.1418C36.3664 23.2132 36.2271 23.2859 36.0888 23.3602C34.1713 17.0786 33.728 15.719 29.9218 3.72036C29.5442 3.88696 29.1697 4.05924 28.7981 4.23659C32.7537 16.1565 33.1727 17.4545 35.3475 23.774C35.213 23.8524 35.0794 23.9321 34.9468 24.013C35.7352 26.1651 36.744 28.9024 38.1904 32.8375H39.2469ZM37.7667 32.8375C36.2707 29.0915 35.2187 26.4503 34.3835 24.3671C34.2604 24.4467 34.1379 24.5277 34.0163 24.6098C31.3398 18.2748 30.8258 17.1245 25.8743 5.7783C25.5002 5.99484 25.1301 6.21676 24.7642 6.44436C29.8533 17.6783 30.3383 18.7749 33.2999 25.1125C33.1828 25.1981 33.0663 25.2848 32.9507 25.372C33.8761 27.2586 35.0349 29.6121 36.6209 32.8375H37.7667ZM36.1567 32.8375C34.5651 29.8138 33.3886 27.5754 32.4373 25.7722C32.3306 25.8576 32.2248 25.9439 32.1197 26.0308C28.661 19.7489 28.1003 18.7812 22.1186 8.23233C21.7548 8.49914 21.3955 8.77163 21.0416 9.04982C27.1426 19.4546 27.6728 20.3783 31.438 26.6185C31.3373 26.7086 31.2375 26.7996 31.1387 26.8913C32.1228 28.4576 33.3217 30.3613 34.8799 32.8375H36.1567ZM34.358 32.8375C32.8427 30.57 31.6599 28.7987 30.677 27.3307C30.5703 27.435 30.4646 27.5406 30.36 27.6468L30.378 27.6285C26.1184 21.5185 25.5273 20.7067 18.6451 11.084C18.33 11.373 18.0199 11.6667 17.7149 11.9648C24.6837 21.43 25.2485 22.2111 29.799 28.2373C29.7046 28.3401 29.6114 28.4434 29.5192 28.5474C30.4526 29.7357 31.5491 31.1295 32.8923 32.8375H34.358ZM32.287 32.8375L29.1122 29.021C29.0235 29.1269 28.9357 29.2334 28.8492 29.3409C23.8113 23.5195 23.1949 22.8351 15.5666 14.2348C15.2866 14.5547 15.0122 14.8791 14.7435 15.2072C22.428 23.6349 23.0229 24.2972 28.3444 29.9918C28.2626 30.1012 28.1821 30.2112 28.1025 30.3224L32.287 34.6286V32.8375ZM32.287 35.2422L27.7523 30.8251L27.5282 31.1639L12.8911 17.6612C12.6501 18.0086 12.4152 18.3598 12.1863 18.7145C20.4193 26.0349 21.0466 26.5989 27.1019 31.8509C27.0334 31.9666 26.9661 32.0826 26.8998 32.1989L32.287 36.6903V35.2422ZM32.287 37.2006L26.6109 32.7268C26.5487 32.8447 26.4881 32.9627 26.4284 33.0815C19.9406 28.169 19.2659 27.6753 10.6518 21.3187C10.4532 21.6895 10.2616 22.0635 10.0762 22.4406C18.6789 28.6084 19.3454 29.0902 26.0868 33.7985L26.1279 33.7087C26.0593 33.8589 25.993 34.0096 25.9283 34.1604L32.287 38.4201V37.2006ZM32.287 38.8599L25.7057 34.7086C25.6583 34.8306 25.6126 34.9529 25.568 35.0756C18.4301 30.764 17.7124 30.3442 8.87925 25.1574C8.72675 25.5468 8.58151 25.9388 8.44321 26.3336C17.2281 31.3318 17.9454 31.7405 25.3189 35.8153C25.2801 35.9389 25.2431 36.0632 25.2075 36.1874L32.287 39.9223V38.8599ZM32.287 40.3131L25.0569 36.7495C25.0256 36.8743 24.9962 36.9992 24.9685 37.1244C17.236 33.4972 16.4611 33.1441 7.59955 29.1209C7.49725 29.5246 7.40379 29.9308 7.31886 30.3392C16.0873 34.1759 16.8722 34.517 24.8194 37.8771C24.798 38.0029 24.7777 38.1287 24.7594 38.2542L32.287 41.2668V40.3131ZM32.287 41.6234L24.6871 38.8226C24.6735 38.9481 24.6616 39.0739 24.6514 39.1997C16.3958 36.3363 15.5329 36.0445 6.87556 33.1621C6.83104 33.575 6.79505 33.9894 6.76726 34.4048C15.2771 37.1086 16.1653 37.3852 24.6101 39.9527C24.6066 40.0779 24.6047 40.2027 24.6044 40.3279L32.287 42.5028V41.6234ZM32.287 42.8366L24.6101 40.8903C24.6123 41.0142 24.6155 41.1372 24.6199 41.2595C15.9307 39.2338 14.9374 39.0072 6.70632 37.1958C6.71548 37.6087 6.73284 38.0222 6.7581 38.4356C14.7931 40.0874 15.8341 40.2919 24.6549 41.991C24.6625 42.1124 24.671 42.2329 24.6802 42.353L32.287 43.6674V42.8366ZM32.287 43.9867L24.7279 42.8951C24.7399 43.0143 24.7525 43.1325 24.7661 43.2501C15.835 42.1352 14.6504 41.9898 7.03627 41.1343C7.095 41.5399 7.16099 41.9452 7.23487 42.3498C14.6178 43.0741 15.8698 43.1831 24.8576 43.9532C24.8747 44.0698 24.8927 44.1855 24.9113 44.3006L32.287 44.7903V43.9867ZM32.287 45.1026L25.0026 44.8216C25.024 44.936 25.0461 45.0495 25.0692 45.162C16.099 44.9882 14.68 44.9616 7.80605 44.912C7.90961 45.3043 8.02012 45.6956 8.13789 46.0851C14.7653 46.037 16.2619 46.0086 25.2182 45.8347C25.245 45.9463 25.2725 46.057 25.3009 46.167L32.287 45.8973V45.1026ZM32.287 46.21L25.4361 46.6645C25.467 46.7736 25.4989 46.8814 25.5314 46.9889C16.7074 47.7447 15.0378 47.8876 8.9585 48.4813C9.10216 48.8556 9.25246 49.2279 9.40938 49.5981C15.2436 48.939 16.9922 48.7203 25.7389 47.6281C25.7752 47.7337 25.8121 47.8386 25.85 47.9426L32.287 47.0132V46.21ZM32.287 47.3328L26.0293 48.4143C26.0701 48.517 26.1114 48.6188 26.1537 48.7196C17.6385 50.36 15.728 50.727 10.44 51.8084C10.6193 52.1609 10.8053 52.5108 10.9972 52.8576C16.0548 51.7386 18.0357 51.2751 26.418 49.3209C26.4638 49.4198 26.5105 49.5181 26.5579 49.6155L32.287 48.1636V47.3328ZM32.287 48.4971L26.7799 50.0565C26.8301 50.1523 26.8806 50.2471 26.932 50.3413C18.8633 52.7941 16.7456 53.4361 12.2018 54.8716C12.4127 55.1988 12.6296 55.5228 12.8525 55.844C17.1892 54.3908 19.3615 53.635 27.2509 50.8983C27.3059 50.99 27.3611 51.0804 27.4177 51.1708L32.287 49.3765V48.4971ZM32.287 49.7331L27.6803 51.5773C27.7388 51.6649 27.7981 51.7518 27.8581 51.8378C20.3463 55.0136 18.0749 55.9714 14.1995 57.6554C14.4379 57.9551 14.6819 58.2513 14.9311 58.5437C18.6271 56.8531 20.9314 55.7694 28.2269 52.3465C28.29 52.4296 28.3535 52.5121 28.4179 52.5937L32.287 50.6868V49.7331Z" fill="#3460D9"/>
<path d="M141.811 40.8542L156.103 22.928H142.29L141.332 20.7266H159.087V22.6135L144.795 40.5397H160.36L159.402 42.7411H141.811V40.8542Z" fill="white"/>
<path d="M128.204 20.7266H130.717L140.297 42.7411H137.784L129.46 23.3055L121.136 42.7411H118.623L128.204 20.7266Z" fill="white"/>
<path d="M101.979 20.7266H111.022C111.922 20.7266 112.765 20.8786 113.551 21.1824C114.336 21.4865 115.016 21.9006 115.592 22.4248C116.168 22.9489 116.618 23.5726 116.943 24.2959C117.268 25.0195 117.43 25.7898 117.43 26.6076C117.43 27.635 117.174 28.5417 116.66 29.3279C116.147 30.114 115.42 30.6856 114.477 31.0419C115.022 31.1885 115.545 31.4193 116.048 31.7338C116.55 32.0484 116.99 32.4363 117.367 32.8975C117.744 33.3587 118.048 33.8932 118.278 34.5015C118.508 35.1094 118.623 35.7906 118.623 36.5455C118.623 37.405 118.461 38.2124 118.137 38.9673C117.812 39.7219 117.362 40.3772 116.786 40.9326C116.21 41.4883 115.524 41.9287 114.728 42.2537C113.933 42.5786 113.064 42.7411 112.121 42.7411H101.979V20.7266ZM112.121 40.6026C112.792 40.6026 113.383 40.4926 113.896 40.2722C114.409 40.0522 114.844 39.7585 115.2 39.3918C115.556 39.0248 115.828 38.5952 116.016 38.1024C116.205 37.6095 116.299 37.0908 116.299 36.5455C116.299 36.0005 116.205 35.4814 116.016 34.9889C115.828 34.4961 115.556 34.0662 115.2 33.6995C114.844 33.3325 114.409 33.0391 113.896 32.8188C113.383 32.5987 112.792 32.4887 112.121 32.4887H104.24V40.6026H112.121ZM111.022 30.3499C111.629 30.3499 112.184 30.2506 112.687 30.0511C113.19 29.8523 113.619 29.5849 113.975 29.2491C114.331 28.9137 114.608 28.5154 114.807 28.0542C115.006 27.593 115.105 27.1109 115.105 26.6076C115.105 26.1044 115.006 25.6223 114.807 25.1611C114.608 24.6996 114.331 24.3012 113.975 23.9658C113.619 23.6304 113.19 23.363 112.687 23.1638C112.184 22.9647 111.629 22.8651 111.022 22.8651H104.24V30.3499H111.022Z" fill="white"/>
<path d="M158.519 48.2524H176.464L175.53 50.3904H168.205V50.4533V54.2331V70.2594H165.85V56.0628V50.4533V50.3904H157.592L158.519 48.2524Z" fill="white"/>
<path d="M141.812 48.2524H157.008L156.074 50.3904H144.074V57.8726H154.333L153.402 60.0105H144.074V68.1215H156.483L157.413 70.2594H141.812V48.2524Z" fill="white"/>
<path d="M109.398 70.6365C107.911 70.6365 106.441 70.4582 104.986 70.1019C103.595 69.7614 102.352 69.2196 101.258 68.4767L101.987 66.801C102.657 67.1152 103.332 67.3773 104.012 67.5869C104.692 67.7964 105.357 67.9643 106.006 68.0901C106.655 68.2156 107.278 68.3048 107.874 68.3572C108.471 68.4097 109.01 68.436 109.492 68.436C110.245 68.436 111.025 68.373 111.831 68.2472C112.637 68.1214 113.375 67.9172 114.045 67.634C114.715 67.351 115.269 66.9739 115.709 66.5023C116.148 66.0309 116.369 65.4493 116.369 64.7576C116.369 64.0659 116.154 63.4738 115.725 62.9813C115.296 62.4888 114.762 62.0696 114.123 61.7238C113.485 61.378 112.794 61.0897 112.051 60.8592C111.308 60.6284 110.632 60.4192 110.026 60.2305C109.146 59.9788 108.199 59.6908 107.184 59.3659C106.169 59.0409 105.226 58.6325 104.358 58.1396C103.489 57.6471 102.762 57.0395 102.175 56.3163C101.589 55.5933 101.296 54.6974 101.296 53.6283C101.296 52.6015 101.558 51.7265 102.081 51.0032C102.604 50.2803 103.285 49.6882 104.122 49.227C104.96 48.7661 105.896 48.4253 106.933 48.2053C107.969 47.9853 109 47.8752 110.026 47.8752C111.512 47.8752 112.888 48.0532 114.155 48.4098C115.421 48.7661 116.682 49.3111 117.938 50.0445L117.228 51.6652C116.097 51.1743 114.93 50.7848 113.731 50.5003C112.538 50.2174 111.323 50.0761 110.088 50.0761C109.251 50.0761 108.44 50.1545 107.655 50.3119C106.87 50.469 106.179 50.6995 105.582 51.0032C104.986 51.307 104.509 51.6791 104.153 52.1195C103.798 52.5595 103.62 53.052 103.62 53.597C103.62 54.2258 103.85 54.7758 104.31 55.2475C104.771 55.7191 105.331 56.1279 105.99 56.4737C106.65 56.8195 107.336 57.1024 108.047 57.3225C108.759 57.5425 109.356 57.7258 109.837 57.8725C110.842 58.1659 111.868 58.4804 112.914 58.8158C113.961 59.1509 114.914 59.5701 115.772 60.0733C116.63 60.5763 117.331 61.1997 117.876 61.9438C118.42 62.688 118.692 63.6151 118.692 64.726C118.692 65.858 118.404 66.8064 117.829 67.5714C117.253 68.3364 116.515 68.944 115.615 69.3947C114.715 69.8452 113.715 70.1648 112.616 70.3535C111.517 70.5423 110.444 70.6365 109.398 70.6365Z" fill="white"/>
<path d="M170.497 20.7266H173.01L182.59 42.7411H180.077L171.753 23.3055L163.429 42.7411H160.916L170.497 20.7266Z" fill="white"/>
<path d="M128.204 70.267H130.717L140.297 48.2524H137.784L129.46 67.6881L121.136 48.2524H118.623L128.204 70.267Z" fill="white"/>
<path d="M182.473 48.2449H184.986L194.567 70.2594H192.054L183.729 50.8238L175.406 70.2594H172.893L182.473 48.2449Z" fill="white"/>
<path d="M191.826 20.7266C192.34 20.7266 192.806 20.8461 193.224 21.0854C193.642 21.3243 193.97 21.6528 194.209 22.0713C194.448 22.4896 194.567 22.9536 194.567 23.4629C194.567 23.9722 194.445 24.4388 194.201 24.862C193.957 25.2856 193.625 25.6198 193.205 25.8638C192.784 26.1082 192.32 26.2302 191.811 26.2302C191.302 26.2302 190.839 26.1082 190.421 25.8638C190.003 25.6198 189.674 25.2869 189.432 24.8661C189.191 24.4451 189.07 23.9826 189.07 23.4784C189.07 22.9742 189.191 22.5117 189.432 22.0909C189.674 21.6699 190.005 21.3373 190.425 21.0929C190.845 20.8489 191.313 20.7266 191.826 20.7266ZM191.811 25.8015C192.242 25.8015 192.632 25.6975 192.983 25.4898C193.333 25.2818 193.61 24.9999 193.812 24.6439C194.015 24.288 194.116 23.8941 194.116 23.4629C194.116 23.0314 194.017 22.6403 193.82 22.2898C193.623 21.9389 193.35 21.662 193.002 21.4593C192.655 21.2567 192.263 21.1555 191.826 21.1555C191.391 21.1555 190.996 21.258 190.643 21.4631C190.29 21.6686 190.014 21.948 189.814 22.3015C189.614 22.6546 189.514 23.0472 189.514 23.4784C189.514 23.9099 189.614 24.3022 189.814 24.6556C190.014 25.009 190.289 25.2882 190.639 25.4936C190.99 25.6988 191.38 25.8015 191.811 25.8015ZM193.236 23.0108C193.236 23.2394 193.183 23.4341 193.076 23.5953C192.97 23.7566 192.818 23.8786 192.621 23.9617L193.306 25.0141H192.636L192.029 24.0787H191.943H191.336V25.0141H190.666V21.9427H191.943C192.343 21.9427 192.658 22.0388 192.89 22.2313C193.12 22.4235 193.236 22.6833 193.236 23.0108ZM191.904 23.5565C192.123 23.5565 192.291 23.5084 192.411 23.4123C192.53 23.3159 192.59 23.1822 192.59 23.0108C192.59 22.8392 192.53 22.7067 192.411 22.6132C192.291 22.5196 192.123 22.4728 191.904 22.4728H191.328V23.5565H191.904Z" fill="white"/>
<path d="M213.032 59.4532H211.776V61.9761H211.211V56.4744H211.776V58.9423H213.032L214.893 56.4744H215.521L213.48 59.1465L215.639 61.9761H214.971L213.032 59.4532ZM219.988 60.5065H216.926L216.267 61.9761H215.662L218.174 56.4744H218.748L221.26 61.9761H220.647L219.988 60.5065ZM219.776 60.0348L218.457 57.0794L217.138 60.0348H219.776ZM222.311 56.4744H226.331V56.9694H222.884V58.7691H224.682C225.331 58.7691 225.824 58.9028 226.162 59.1702C226.499 59.4374 226.668 59.8249 226.668 60.3332C226.668 60.8627 226.486 61.2686 226.123 61.5516C225.759 61.8345 225.237 61.9761 224.557 61.9761H222.311V56.4744ZM224.549 61.5124C225.056 61.5124 225.44 61.4153 225.699 61.2215C225.958 61.0274 226.087 60.7394 226.087 60.3569C226.087 59.9798 225.96 59.6978 225.707 59.512C225.453 59.3261 225.067 59.2328 224.549 59.2328H222.884V61.5124H224.549ZM231.905 61.4732V61.9761H228.018V56.4744H231.787V56.9773H228.599V58.9344H231.441V59.4294H228.599V61.4732H231.905ZM237.502 56.4744V61.9761H236.929V56.9773H234.275L234.212 58.8162C234.186 59.5761 234.125 60.1878 234.028 60.6516C233.931 61.1156 233.784 61.4611 233.584 61.6894C233.385 61.917 233.121 62.0311 232.791 62.0311C232.65 62.0311 232.504 62.0128 232.352 61.9761L232.399 61.4574C232.488 61.4782 232.574 61.4886 232.658 61.4886C232.888 61.4886 233.075 61.397 233.219 61.2136C233.363 61.0303 233.472 60.7461 233.545 60.3607C233.618 59.9757 233.668 59.4661 233.695 58.8323L233.773 56.4744H237.502ZM241.655 58.4394C242.303 58.4394 242.799 58.586 243.142 58.8794C243.485 59.1728 243.656 59.6024 243.656 60.1685C243.656 60.7606 243.474 61.2098 243.111 61.5162C242.747 61.8228 242.222 61.9761 241.537 61.9761H239.354V56.4744H239.928V58.4394H241.655ZM241.521 61.5124C242.029 61.5124 242.415 61.3995 242.679 61.1741C242.943 60.949 243.075 60.6165 243.075 60.1761C243.075 59.3324 242.557 58.9107 241.521 58.9107H239.928V61.5124H241.521Z" fill="white"/>
<path d="M213.824 53.7956C213.28 53.7956 212.789 53.6748 212.352 53.4336C211.915 53.1928 211.573 52.8589 211.324 52.4319C211.076 52.0048 210.951 51.5265 210.951 50.9973C210.951 50.4681 211.076 49.9902 211.324 49.5631C211.573 49.136 211.917 48.8019 212.357 48.5607C212.796 48.3198 213.288 48.1993 213.832 48.1993C214.241 48.1993 214.617 48.2673 214.963 48.4036C215.308 48.5398 215.601 48.739 215.842 49.001L215.473 49.3702C215.044 48.9356 214.502 48.7181 213.848 48.7181C213.414 48.7181 213.018 48.8177 212.662 49.0168C212.307 49.216 212.028 49.4885 211.826 49.8343C211.625 50.1798 211.524 50.5677 211.524 50.9973C211.524 51.4272 211.625 51.8148 211.826 52.1606C212.028 52.5065 212.307 52.779 212.662 52.9781C213.018 53.177 213.414 53.2765 213.848 53.2765C214.507 53.2765 215.049 53.0568 215.473 52.6165L215.842 52.9857C215.601 53.2481 215.307 53.4482 214.959 53.587C214.611 53.7261 214.233 53.7956 213.824 53.7956ZM220.301 50.911C220.683 50.9897 220.973 51.1427 221.172 51.3707C221.371 51.5986 221.471 51.896 221.471 52.2627C221.471 52.7394 221.302 53.1065 220.964 53.3631C220.627 53.6198 220.131 53.7482 219.477 53.7482H217.043V48.2464H219.328C219.914 48.2464 220.372 48.3669 220.701 48.6078C221.031 48.849 221.196 49.1976 221.196 49.6535C221.196 49.9623 221.117 50.2231 220.96 50.4356C220.803 50.6477 220.584 50.8061 220.301 50.911ZM217.616 50.7381H219.296C219.72 50.7381 220.046 50.6515 220.273 50.4786C220.501 50.306 220.615 50.054 220.615 49.7243C220.615 49.394 220.501 49.1423 220.273 48.9697C220.046 48.7965 219.72 48.7102 219.296 48.7102H217.616V50.7381ZM219.477 53.2844C220.424 53.2844 220.898 52.931 220.898 52.2235C220.898 51.5319 220.424 51.186 219.477 51.186H217.616V53.2844H219.477ZM226.809 53.2452V53.7482H222.923V48.2464H226.691V48.7494H223.504V50.7065H226.346V51.2015H223.504V53.2452H226.809ZM231.692 48.7494H229.76V53.7482H229.187V48.7494H227.256V48.2464H231.692V48.7494Z" fill="white"/>
<path d="M211.211 64.7573H211.784V69.3157L215.301 64.7573H215.827V70.259H215.254V65.7085L211.737 70.259H211.211V64.7573ZM222.272 64.7573V70.259H221.699V67.7203H218.26V70.259H217.68V64.7573H218.26V67.2094H221.699V64.7573H222.272ZM226.527 70.3061C225.983 70.3061 225.492 70.1857 225.055 69.9445C224.618 69.7036 224.275 69.3695 224.027 68.9424C223.778 68.5153 223.654 68.0374 223.654 67.5082C223.654 66.979 223.778 66.501 224.027 66.0739C224.275 65.6469 224.619 65.3127 225.059 65.0715C225.499 64.8306 225.991 64.7102 226.535 64.7102C226.943 64.7102 227.32 64.7782 227.665 64.9144C228.011 65.0507 228.304 65.2498 228.544 65.5119L228.175 65.8811C227.746 65.4461 227.205 65.229 226.551 65.229C226.116 65.229 225.721 65.3285 225.365 65.5277C225.009 65.7265 224.731 65.9993 224.529 66.3449C224.328 66.6907 224.227 67.0786 224.227 67.5082C224.227 67.9378 224.328 68.3257 224.529 68.6715C224.731 69.0173 225.009 69.2898 225.365 69.489C225.721 69.6878 226.116 69.7874 226.551 69.7874C227.21 69.7874 227.752 69.5674 228.175 69.1273L228.544 69.4966C228.304 69.7589 228.009 69.959 227.661 70.0978C227.313 70.2369 226.935 70.3061 226.527 70.3061ZM233.27 65.2602H231.339V70.259H230.766V65.2602H228.835V64.7573H233.27V65.2602ZM236.348 64.7573C237.049 64.7573 237.599 64.9248 237.996 65.2602C238.394 65.5957 238.593 66.0569 238.593 66.6436C238.593 67.2303 238.394 67.6903 237.996 68.0228C237.599 68.3557 237.049 68.522 236.348 68.522H234.872V70.259H234.291V64.7573H236.348ZM236.332 68.0111C236.876 68.0111 237.293 67.8919 237.58 67.6536C237.868 67.4152 238.012 67.0786 238.012 66.6436C238.012 66.1982 237.868 65.8561 237.58 65.6178C237.293 65.3794 236.876 65.2602 236.332 65.2602H234.872V68.0111H236.332ZM243.986 64.7573L241.49 69.3866C241.312 69.7169 241.104 69.9616 240.866 70.1215C240.628 70.2815 240.367 70.3612 240.085 70.3612C239.875 70.3612 239.65 70.3115 239.409 70.2119L239.574 69.7403C239.763 69.8136 239.935 69.8506 240.092 69.8506C240.454 69.8506 240.749 69.6537 240.979 69.2607L241.137 68.9936L238.907 64.7573H239.527L241.443 68.4828L243.405 64.7573H243.986ZM250.596 64.7573V70.259H250.039V65.8577L247.88 69.5595H247.605L245.446 65.8811V70.259H244.889V64.7573H245.368L247.754 68.8362L250.117 64.7573H250.596ZM256.335 69.7561V70.259H252.449V64.7573H256.217V65.2602H253.03V67.2173H255.872V67.7124H253.03V69.7561H256.335ZM262.214 64.7573V70.259H261.641V67.7203H258.203V70.259H257.622V64.7573H258.203V67.2094H261.641V64.7573H262.214ZM267.663 65.2602H265.731V70.259H265.158V65.2602H263.227V64.7573H267.663V65.2602Z" fill="white"/>
<path d="M136.284 35.0989H122.635V37.2374H136.284V35.0989Z" fill="white"/>
<path d="M178.579 35.0989H164.93V37.2374H178.579V35.0989Z" fill="white"/>
<path d="M190.554 62.6172H176.904V64.7557H190.554V62.6172Z" fill="white"/>
</svg>
